<svg viewBox="0 0 1705.3499755859375 400" xmlns="http://www.w3.org/2000/svg"><g><g><g><g><g><line x1="72.29800224304199" y1="376.9089994430542" x2="67.29800224304199" y2="376.9089994430542" style="visibility: inherit;" fill="rgb(0, 0, 0)" stroke="rgb(204, 204, 204)" stroke-width="1px"></line><line x1="72.29800224304199" y1="329.7953745126724" x2="67.29800224304199" y2="329.7953745126724" style="visibility: inherit;" fill="rgb(0, 0, 0)" stroke="rgb(204, 204, 204)" stroke-width="1px"></line><line x1="72.29800224304199" y1="282.68174958229065" x2="67.29800224304199" y2="282.68174958229065" style="visibility: inherit;" fill="rgb(0, 0, 0)" stroke="rgb(204, 204, 204)" stroke-width="1px"></line><line x1="72.29800224304199" y1="235.56812465190887" x2="67.29800224304199" y2="235.56812465190887" style="visibility: inherit;" fill="rgb(0, 0, 0)" stroke="rgb(204, 204, 204)" stroke-width="1px"></line><line x1="72.29800224304199" y1="188.45449972152713" x2="67.29800224304199" y2="188.45449972152713" style="visibility: inherit;" fill="rgb(0, 0, 0)" stroke="rgb(204, 204, 204)" stroke-width="1px"></line><line x1="72.29800224304199" y1="141.34087479114532" x2="67.29800224304199" y2="141.34087479114532" style="visibility: inherit;" fill="rgb(0, 0, 0)" stroke="rgb(204, 204, 204)" stroke-width="1px"></line><line x1="72.29800224304199" y1="94.22724986076359" x2="67.29800224304199" y2="94.22724986076359" style="visibility: inherit;" fill="rgb(0, 0, 0)" stroke="rgb(204, 204, 204)" stroke-width="1px"></line><line x1="72.29800224304199" y1="47.113624930381775" x2="67.29800224304199" y2="47.113624930381775" style="visibility: inherit;" fill="rgb(0, 0, 0)" stroke="rgb(204, 204, 204)" stroke-width="1px"></line><line x1="72.29800224304199" y1="0" x2="67.29800224304199" y2="0" style="visibility: inherit;" fill="rgb(0, 0, 0)" stroke="rgb(204, 204, 204)" stroke-width="1px"></line></g><g transform="translate(62.29800224304199, 0)"><text style="text-anchor: end; visibility: hidden; font-family: Roboto, sans-serif; font-size: 12px; font-weight: 200;" x="0" y="376.9089994430542" dx="0em" dy="0.3em" fill="rgb(255, 255, 255)" stroke="none" stroke-width="1px">2.5e-3</text><text style="text-anchor: end; visibility: inherit; font-family: Roboto, sans-serif; font-size: 12px; font-weight: 200;" x="0" y="329.7953745126724" dx="0em" dy="0.3em" fill="rgb(255, 255, 255)" stroke="none" stroke-width="1px">3e-3</text><text style="text-anchor: end; visibility: inherit; font-family: Roboto, sans-serif; font-size: 12px; font-weight: 200;" x="0" y="282.68174958229065" dx="0em" dy="0.3em" fill="rgb(255, 255, 255)" stroke="none" stroke-width="1px">3.5e-3</text><text style="text-anchor: end; visibility: inherit; font-family: Roboto, sans-serif; font-size: 12px; font-weight: 200;" x="0" y="235.56812465190887" dx="0em" dy="0.3em" fill="rgb(255, 255, 255)" stroke="none" stroke-width="1px">4e-3</text><text style="text-anchor: end; visibility: inherit; font-family: Roboto, sans-serif; font-size: 12px; font-weight: 200;" x="0" y="188.45449972152713" dx="0em" dy="0.3em" fill="rgb(255, 255, 255)" stroke="none" stroke-width="1px">4.5e-3</text><text style="text-anchor: end; visibility: inherit; font-family: Roboto, sans-serif; font-size: 12px; font-weight: 200;" x="0" y="141.34087479114532" dx="0em" dy="0.3em" fill="rgb(255, 255, 255)" stroke="none" stroke-width="1px">5e-3</text><text style="text-anchor: end; visibility: inherit; font-family: Roboto, sans-serif; font-size: 12px; font-weight: 200;" x="0" y="94.22724986076359" dx="0em" dy="0.3em" fill="rgb(255, 255, 255)" stroke="none" stroke-width="1px">5.5e-3</text><text style="text-anchor: end; visibility: inherit; font-family: Roboto, sans-serif; font-size: 12px; font-weight: 200;" x="0" y="47.113624930381775" dx="0em" dy="0.3em" fill="rgb(255, 255, 255)" stroke="none" stroke-width="1px">6e-3</text><text style="text-anchor: end; visibility: hidden; font-family: Roboto, sans-serif; font-size: 12px; font-weight: 200;" x="0" y="0" dx="0em" dy="0.3em" fill="rgb(255, 255, 255)" stroke="none" stroke-width="1px">6.5e-3</text></g><line x1="72.29800224304199" y1="0" x2="72.29800224304199" y2="376.9089994430542" fill="rgb(0, 0, 0)" stroke="rgb(204, 204, 204)" stroke-width="1px"></line></g></g><g transform="translate(72, 0)" clip-path="url(#clip_0)"><clipPath id="clip_0"><rect width="1633" height="376"></rect></clipPath><g><g><g><line x1="0" y1="0" x2="0" y2="376.9089994430542" fill="rgb(0, 0, 0)" stroke="rgb(189, 189, 189)" stroke-width="1px" opacity="0.25"></line><line x1="136.08766647974647" y1="0" x2="136.08766647974647" y2="376.9089994430542" fill="rgb(0, 0, 0)" stroke="rgb(189, 189, 189)" stroke-width="1px" opacity="0.25"></line><line x1="272.17533295949295" y1="0" x2="272.17533295949295" y2="376.9089994430542" fill="rgb(0, 0, 0)" stroke="rgb(189, 189, 189)" stroke-width="1px" opacity="0.25"></line><line x1="408.2629994392395" y1="0" x2="408.2629994392395" y2="376.9089994430542" fill="rgb(0, 0, 0)" stroke="rgb(189, 189, 189)" stroke-width="1px" opacity="0.25"></line><line x1="544.3506659189859" y1="0" x2="544.3506659189859" y2="376.9089994430542" fill="rgb(0, 0, 0)" stroke="rgb(189, 189, 189)" stroke-width="1px" opacity="0.25"></line><line x1="680.4383323987325" y1="0" x2="680.4383323987325" y2="376.9089994430542" fill="rgb(0, 0, 0)" stroke="rgb(189, 189, 189)" stroke-width="1px" opacity="0.25"></line><line x1="816.525998878479" y1="0" x2="816.525998878479" y2="376.9089994430542" fill="rgb(0, 0, 0)" stroke="rgb(189, 189, 189)" stroke-width="1px" opacity="0.25"></line><line x1="952.6136653582255" y1="0" x2="952.6136653582255" y2="376.9089994430542" fill="rgb(0, 0, 0)" stroke="rgb(189, 189, 189)" stroke-width="1px" opacity="0.25"></line><line x1="1088.7013318379718" y1="0" x2="1088.7013318379718" y2="376.9089994430542" fill="rgb(0, 0, 0)" stroke="rgb(189, 189, 189)" stroke-width="1px" opacity="0.25"></line><line x1="1224.7889983177183" y1="0" x2="1224.7889983177183" y2="376.9089994430542" fill="rgb(0, 0, 0)" stroke="rgb(189, 189, 189)" stroke-width="1px" opacity="0.25"></line><line x1="1360.876664797465" y1="0" x2="1360.876664797465" y2="376.9089994430542" fill="rgb(0, 0, 0)" stroke="rgb(189, 189, 189)" stroke-width="1px" opacity="0.25"></line><line x1="1496.9643312772114" y1="0" x2="1496.9643312772114" y2="376.9089994430542" fill="rgb(0, 0, 0)" stroke="rgb(189, 189, 189)" stroke-width="1px" opacity="0.25"></line><line x1="1633.051997756958" y1="0" x2="1633.051997756958" y2="376.9089994430542" fill="rgb(0, 0, 0)" stroke="rgb(189, 189, 189)" stroke-width="1px" opacity="0.25"></line></g><g><line x1="0" y1="376.9089994430542" x2="1633.051997756958" y2="376.9089994430542" fill="rgb(0, 0, 0)" stroke="rgb(189, 189, 189)" stroke-width="1px" opacity="0.25"></line><line x1="0" y1="329.7953745126724" x2="1633.051997756958" y2="329.7953745126724" fill="rgb(0, 0, 0)" stroke="rgb(189, 189, 189)" stroke-width="1px" opacity="0.25"></line><line x1="0" y1="282.68174958229065" x2="1633.051997756958" y2="282.68174958229065" fill="rgb(0, 0, 0)" stroke="rgb(189, 189, 189)" stroke-width="1px" opacity="0.25"></line><line x1="0" y1="235.56812465190887" x2="1633.051997756958" y2="235.56812465190887" fill="rgb(0, 0, 0)" stroke="rgb(189, 189, 189)" stroke-width="1px" opacity="0.25"></line><line x1="0" y1="188.45449972152713" x2="1633.051997756958" y2="188.45449972152713" fill="rgb(0, 0, 0)" stroke="rgb(189, 189, 189)" stroke-width="1px" opacity="0.25"></line><line x1="0" y1="141.34087479114532" x2="1633.051997756958" y2="141.34087479114532" fill="rgb(0, 0, 0)" stroke="rgb(189, 189, 189)" stroke-width="1px" opacity="0.25"></line><line x1="0" y1="94.22724986076359" x2="1633.051997756958" y2="94.22724986076359" fill="rgb(0, 0, 0)" stroke="rgb(189, 189, 189)" stroke-width="1px" opacity="0.25"></line><line x1="0" y1="47.113624930381775" x2="1633.051997756958" y2="47.113624930381775" fill="rgb(0, 0, 0)" stroke="rgb(189, 189, 189)" stroke-width="1px" opacity="0.25"></line><line x1="0" y1="0" x2="1633.051997756958" y2="0" fill="rgb(0, 0, 0)" stroke="rgb(189, 189, 189)" stroke-width="1px" opacity="0.25"></line></g></g></g><g><g><line x1="0" y1="612.4771240949631" x2="1633.051997756958" y2="612.4771240949631" fill="rgb(0, 0, 0)" stroke="rgb(153, 153, 153)" stroke-width="1.5px"></line></g></g><g><g><line x1="136.08766647974647" y1="0" x2="136.08766647974647" y2="376.9089994430542" fill="rgb(0, 0, 0)" stroke="rgb(153, 153, 153)" stroke-width="1.5px"></line></g></g><g><g><g><g><g><path style="fill: none;" stroke="rgb(0, 119, 187)" stroke-width="2px" d="M158.38426975578815,87.90355783543119L180.68087303182983,283.9829629117269L202.9774763078715,229.74548952128168L225.27407958391314,145.65739330075502L247.57068285995484,133.55876165309493L269.8672861359965,99.05739821264311L292.16388941203815,24.225773954639248L314.46049268807985,77.3386656100845L336.7570959641215,175.94662920795668L359.05369924016316,107.76850129719985L381.3503025162048,46.01284112830905L403.64690579224646,39.7652731743838L425.9435090682881,170.8961136424539L448.2401123443298,76.31117670967527L470.5367156203715,141.34176890979074L492.8333188964131,60.34188827988378L515.1299221724548,-0.2635568124413702L537.4265254484965,107.27043578693844L559.7231287245381,84.93837058125065L582.0197320005798,97.73323722329906L604.3163352766214,77.916381493847L626.6129385526631,122.12356521055658L648.9095418287047,1.0687284916706294L671.2061451047465,90.19342225043779L693.5027483807881,111.72203838616261L715.7993516568298,153.0417513190682L738.0959549328715,197.7370371925787L760.3925582089132,273.6698541848465L782.6891614849548,244.10763410819882L804.9857647609964,276.1624314802694L827.282368037038,236.9550639979544L849.5789713130798,183.84663440124496L871.8755745891215,179.92752037128088L894.172177865163,290.72799537933713L916.4687811412049,289.07004850905895L938.7653844172464,293.0894895571475L961.0619876932881,307.0067071599106L983.3585909693298,119.1246161732351L1005.6551942453714,212.7648170104542L1027.951797521413,343.0258031669996L1050.248400797455,362.90099718694046L1072.5450040734963,284.6065139731088L1094.841607349538,328.4681822005198L1117.1382106255799,292.8351233551517L1139.4348139016215,180.5046725067095L1161.731417177663,82.80195055222539L1184.0280204537048,132.7826766956967L1206.3246237297465,279.3816510475276L1228.6212270057881,255.26261869758505L1250.9178302818298,281.9535734227459L1273.2144335578714,287.52352784214406L1295.511036833913,255.93714337203014L1317.8076401099547,320.49822407103636L1340.1042433859964,344.5962736520449L1362.4008466620382,347.52265326813347L1384.6974499380797,368.34471055554945L1406.9940532141213,449.70486732137437L1429.2906564901632,442.2820082594905L1451.5872597662049,315.7573761807837L1473.8838630422463,214.57853218720078L1496.1804663182882,249.9442798586309L1518.4770695943298,158.6814497778146" fill="none"></path></g><g><path style="fill: none;" stroke="rgb(255, 112, 67)" stroke-width="2px" d="M158.38426975578815,360.422116063343L180.68087303182983,409.8825571238902L202.9774763078715,393.51816561991603L225.27407958391314,212.2160229116745L247.57068285995484,198.72346812262973L269.8672861359965,168.3999809666174L292.16388941203815,272.0460430955677L314.46049268807985,285.5089364867077L336.7570959641215,261.56646505792753L359.05369924016316,164.4789197661285L381.3503025162048,184.89679780006728L403.64690579224646,153.3200925693664L425.9435090682881,152.04973125400096L448.2401123443298,160.3659189263922L470.5367156203715,95.8418523934416L492.8333188964131,156.9847555141418L515.1299221724548,202.6557195597072L537.4265254484965,128.28577832828972L559.7231287245381,145.75861813775134L582.0197320005798,-17.277675421850518L604.3163352766214,-1.7015079040279597L626.6129385526631,58.070180407907706L648.9095418287047,170.94082464105043L671.2061451047465,223.0827677622814L693.5027483807881,276.5890531045803L715.7993516568298,213.1626403712102L738.0959549328715,116.63256307259878L760.3925582089132,138.92459910412592L782.6891614849548,192.994856699473L804.9857647609964,209.55096266553835L827.282368037038,287.8280306983414L849.5789713130798,240.34484660052593L871.8755745891215,282.60245820651613L894.172177865163,221.429578540263L916.4687811412049,146.1360782788324L938.7653844172464,198.2536405133959L961.0619876932881,104.73258824201207L983.3585909693298,172.69950308219458L1005.6551942453714,135.1241056752466L1027.951797521413,236.02042695642618L1050.248400797455,303.88571108317325L1072.5450040734963,283.1009730575619L1094.841607349538,349.7650545222329L1117.1382106255799,343.7686364224663L1139.4348139016215,343.90132673561294L1161.731417177663,339.1294050551013L1184.0280204537048,317.37259463357407L1206.3246237297465,344.81828987899627L1228.6212270057881,327.7808920646288L1250.9178302818298,245.71976188855706L1273.2144335578714,243.37783550872103L1295.511036833913,151.04149331548163L1317.8076401099547,160.37013755116357L1340.1042433859964,248.2300639969938L1362.4008466620382,256.0733937369591L1384.6974499380797,157.84605005658145L1406.9940532141213,145.35606789986267L1429.2906564901632,257.6828708771985L1451.5872597662049,143.59709857298725L1473.8838630422463,272.9110385797727L1496.1804663182882,314.2116441361203L1518.4770695943298,342.1125920319754" fill="none"></path></g><g><path style="fill: none;" stroke="rgb(187, 187, 187)" stroke-width="2px" d="M158.38426975578815,211.14921970165784L180.68087303182983,391.45523737701006L202.9774763078715,335.34349064039105L225.27407958391314,145.81179423467267L247.57068285995484,125.86183039869591L269.8672861359965,241.6906664388794L292.16388941203815,309.4321819641401L314.46049268807985,319.7727030061246L336.7570959641215,304.0229033488259L359.05369924016316,307.3668761567104L381.3503025162048,240.06798201914904L403.64690579224646,109.30114053491346L425.9435090682881,62.66561257762046L448.2401123443298,120.41242588432524L470.5367156203715,204.3905003851849L492.8333188964131,160.18925900002378L515.1299221724548,133.59579960645524L537.4265254484965,-68.15427315739268L559.7231287245381,-57.306362792803476L582.0197320005798,71.47368386243689L604.3163352766214,166.99219036002464L626.6129385526631,178.20450706269636L648.9095418287047,195.61020828969902L671.2061451047465,146.10405077759566L693.5027483807881,201.45426821060667L715.7993516568298,136.050873962012L738.0959549328715,203.72188215971485L760.3925582089132,182.21957843052695L782.6891614849548,170.53122069177235L804.9857647609964,129.46955382640755L827.282368037038,228.36340955245703L849.5789713130798,225.82031978356784L871.8755745891215,257.45346266491396L894.172177865163,292.8562975465243L916.4687811412049,295.571361867293L938.7653844172464,303.34073801359614L961.0619876932881,306.28123222587476L983.3585909693298,274.79969906110085L1005.6551942453714,284.36498398666646L1027.951797521413,231.25974358354424L1050.248400797455,187.1461299396518L1072.5450040734963,313.3681544662278L1094.841607349538,304.854335213404L1117.1382106255799,375.5358992190402L1139.4348139016215,354.9093725805026L1161.731417177663,292.605534025112L1184.0280204537048,267.67811907718624L1206.3246237297465,308.41539651841947L1228.6212270057881,311.4495285990193L1250.9178302818298,296.61131057399115L1273.2144335578714,194.22675056008373L1295.511036833913,249.07374749528668L1317.8076401099547,347.1404688047345L1340.1042433859964,340.4696382426795L1362.4008466620382,335.9570408080481L1384.6974499380797,196.22382600365066L1406.9940532141213,100.66856355761675L1429.2906564901632,64.10120538074855L1451.5872597662049,228.8229493803708L1473.8838630422463,238.91137213986332L1496.1804663182882,300.63048274795597L1518.4770695943298,304.89639040068306" fill="none"></path></g></g></g></g><g opacity="0.2"><g><g><g><path style="fill: none;" stroke="rgb(0, 119, 187)" stroke-width="2px" d="M158.38426975578815,87.90355783543119L180.68087303182983,401.63060595750426L202.9774763078715,177.6775150664543L225.27407958391314,46.76979214541571L247.57068285995484,117.76278817391L269.8672861359965,51.329592083659776L292.16388941203815,-82.78464604029443L314.46049268807985,154.77777152748368L336.7570959641215,321.3742219039689L359.05369924016316,6.531927101465201L381.3503025162048,-46.06052983251194L403.64690579224646,30.427920232408752L425.9435090682881,367.1642093987054L448.2401123443298,-65.3809269515224L470.5367156203715,238.8112161899874L492.8333188964131,-61.100805273539756L515.1299221724548,-91.14607825768981L537.4265254484965,268.5441218169361L559.7231287245381,51.44367483808082L582.0197320005798,116.9243676848803L604.3163352766214,48.19218470313374L626.6129385526631,188.4328861294103L648.9095418287047,-180.5111365700784L671.2061451047465,223.87940712162452L693.5027483807881,144.01480957356043L715.7993516568298,215.0211445087255L738.0959549328715,264.7798516398577L760.3925582089132,387.56896309848787L782.6891614849548,199.76433122421005L804.9857647609964,324.24460982217596L827.282368037038,178.1440257760714L849.5789713130798,104.18400057298066L871.8755745891215,174.04884979419828L894.172177865163,456.9286999550107L916.4687811412049,286.58312827489476L938.7653844172464,299.1186510256349L961.0619876932881,327.8825333487331L983.3585909693298,-162.6985185626719L1005.6551942453714,353.2251177447267L1027.951797521413,538.4172819665017L1050.248400797455,392.7137881769995L1072.5450040734963,167.16478924655536L1094.841607349538,394.26068450997514L1117.1382106255799,239.3855351025324L1139.4348139016215,12.008996263236867L1161.731417177663,-63.75213236426722L1184.0280204537048,207.7537659062279L1206.3246237297465,499.2801125670453L1228.6212270057881,219.08407017348347L1250.9178302818298,321.99000550994765L1273.2144335578714,295.87845947117376L1295.511036833913,208.55756666708908L1317.8076401099547,417.33984511926406L1340.1042433859964,380.7433480234945L1362.4008466620382,351.91222269226165L1384.6974499380797,399.5777964866538L1429.2906564901632,431.14771966666734L1451.5872597662049,125.97042806274932L1473.8838630422463,62.81026619683877L1496.1804663182882,302.99290136577343L1518.4770695943298,21.78720465659417" fill="none"></path></g><g><path style="fill: none;" stroke="rgb(255, 112, 67)" stroke-width="2px" d="M158.38426975578815,360.422116063343L180.68087303182983,439.5588217602184L225.27407958391314,-0.9952969132175109L247.57068285995484,181.10758859005276L269.8672861359965,126.45168177447624L292.16388941203815,420.26157027696064L314.46049268807985,305.1379642947663L336.7570959641215,226.25597028612714L359.05369924016316,20.31522997868545L381.3503025162048,215.3384261999634L403.64690579224646,106.12687375875346L425.9435090682881,150.1483372310603L448.2401123443298,172.82390815759356L470.5367156203715,-0.8684017879153376L492.8333188964131,248.65598748275113L515.1299221724548,271.14283920668254L537.4265254484965,16.749749001185695L559.7231287245381,171.96521604066288L582.0197320005798,-261.81721359823484L604.3163352766214,21.661889138660904L626.6129385526631,147.72574606294702L648.9095418287047,340.2445625567883L671.2061451047465,301.2950647731023L693.5027483807881,356.84810081825293L715.7993516568298,118.0232917558322L738.0959549328715,-28.162305881307166L760.3925582089132,172.36261892789034L782.6891614849548,274.1001932861444L804.9857647609964,234.3851124643283L827.282368037038,405.24360679001865L849.5789713130798,169.12007990136706L871.8755745891215,345.9888705707913L894.172177865163,129.67026342257108L916.4687811412049,33.195831122558026L938.7653844172464,276.4299825213344L961.0619876932881,-35.54898871813969L983.3585909693298,274.64987471153273L1005.6551942453714,78.76100977411143L1027.951797521413,387.3649085410128L1050.248400797455,405.6836371372153L1072.5450040734963,251.92386604415063L1094.841607349538,449.7611766711184L1117.1382106255799,334.77400927541333L1139.4348139016215,344.1003622052984L1161.731417177663,331.971522535078L1184.0280204537048,284.73737900331844L1206.3246237297465,385.98683274558914L1228.6212270057881,302.2247953436513L1250.9178302818298,122.62806662610764L1273.2144335578714,239.8649459389956L1295.511036833913,12.53698002629394L1317.8076401099547,174.36310390464575L1340.1042433859964,380.0199536655089L1362.4008466620382,267.8383883468946L1384.6974499380797,10.50503453610779L1406.9940532141213,126.62109466479149L1429.2906564901632,426.17307534316416L1473.8838630422463,466.88194858993495L1496.1804663182882,376.16255247063873L1518.4770695943298,383.9640138757567" fill="none"></path></g><g><path style="fill: none;" stroke="rgb(187, 187, 187)" stroke-width="2px" d="M158.38426975578815,211.14921970165784L180.68087303182983,499.63884798222136L202.9774763078715,281.47621377323685L225.27407958391314,-77.07748073845197L247.57068285995484,99.81515761444443L269.8672861359965,401.9236450634277L292.16388941203815,406.3036330295112L314.46049268807985,334.84928195434L336.7570959641215,280.7950080953958L359.05369924016316,312.33228605645195L381.3503025162048,139.73003682943602L403.64690579224646,-86.13749431474635L425.9435090682881,-7.135406268087816L448.2401123443298,206.91951382553282L470.5367156203715,330.2588990623146L492.8333188964131,93.91857106228058L515.1299221724548,93.71686397686767L537.4265254484965,-370.72815798154534L559.7231287245381,-41.03614981587942L582.0197320005798,264.6319828389351L604.3163352766214,310.2647116445005L626.6129385526631,195.0226131706469L648.9095418287047,221.71841648499517L671.2061451047465,71.84540095707287L693.5027483807881,284.47920095446716L715.7993516568298,37.94606150472029L738.0959549328715,305.2282213047063L760.3925582089132,149.96615584784638L782.6891614849548,152.99869485027L804.9857647609964,67.87707622251942L827.282368037038,376.70416034725264L849.5789713130798,222.00568563622386L871.8755745891215,304.9031732105713L894.172177865163,345.9605473331072L916.4687811412049,299.6439582317613L938.7653844172464,314.9948020327092L961.0619876932881,310.6919734987985L983.3585909693298,227.57739960618255L1005.6551942453714,298.7129113217382L1027.951797521413,151.60188315633178L1050.248400797455,120.97570956226627L1072.5450040734963,502.7011911042375L1094.841607349538,292.08360634031396L1117.1382106255799,481.5582451968816L1139.4348139016215,323.9695826280563L1161.731417177663,199.1497762017404L1184.0280204537048,230.2869966576297L1206.3246237297465,369.5213126779828L1228.6212270057881,316.0007267198167L1250.9178302818298,274.3539835367488L1273.2144335578714,40.64991054046391L1295.511036833913,331.34424289769214L1317.8076401099547,494.2405507684783L1340.1042433859964,330.4633923996143L1362.4008466620382,329.1881446561082L1384.6974499380797,-13.375996202813575L1406.9940532141213,-42.66433011138002L1429.2906564901632,9.25016811545881L1451.5872597662049,475.9055653797708L1473.8838630422463,254.04400627910073L1496.1804663182882,393.2091486600904L1518.4770695943298,311.29525187977345" fill="none"></path></g></g></g></g></g></g><g transform="translate(72, 376)" clip-path="url(#clip_1)"><clipPath id="clip_1"><rect width="1633" height="23"></rect></clipPath><g><g><line x1="0" y1="0" x2="0" y2="5" style="visibility: inherit;" fill="rgb(0, 0, 0)" stroke="rgb(204, 204, 204)" stroke-width="1px"></line><line x1="136.08766647974647" y1="0" x2="136.08766647974647" y2="5" style="visibility: inherit;" fill="rgb(0, 0, 0)" stroke="rgb(204, 204, 204)" stroke-width="1px"></line><line x1="272.17533295949295" y1="0" x2="272.17533295949295" y2="5" style="visibility: inherit;" fill="rgb(0, 0, 0)" stroke="rgb(204, 204, 204)" stroke-width="1px"></line><line x1="408.2629994392395" y1="0" x2="408.2629994392395" y2="5" style="visibility: inherit;" fill="rgb(0, 0, 0)" stroke="rgb(204, 204, 204)" stroke-width="1px"></line><line x1="544.3506659189859" y1="0" x2="544.3506659189859" y2="5" style="visibility: inherit;" fill="rgb(0, 0, 0)" stroke="rgb(204, 204, 204)" stroke-width="1px"></line><line x1="680.4383323987325" y1="0" x2="680.4383323987325" y2="5" style="visibility: inherit;" fill="rgb(0, 0, 0)" stroke="rgb(204, 204, 204)" stroke-width="1px"></line><line x1="816.525998878479" y1="0" x2="816.525998878479" y2="5" style="visibility: inherit;" fill="rgb(0, 0, 0)" stroke="rgb(204, 204, 204)" stroke-width="1px"></line><line x1="952.6136653582255" y1="0" x2="952.6136653582255" y2="5" style="visibility: inherit;" fill="rgb(0, 0, 0)" stroke="rgb(204, 204, 204)" stroke-width="1px"></line><line x1="1088.7013318379718" y1="0" x2="1088.7013318379718" y2="5" style="visibility: inherit;" fill="rgb(0, 0, 0)" stroke="rgb(204, 204, 204)" stroke-width="1px"></line><line x1="1224.7889983177183" y1="0" x2="1224.7889983177183" y2="5" style="visibility: inherit;" fill="rgb(0, 0, 0)" stroke="rgb(204, 204, 204)" stroke-width="1px"></line><line x1="1360.876664797465" y1="0" x2="1360.876664797465" y2="5" style="visibility: inherit;" fill="rgb(0, 0, 0)" stroke="rgb(204, 204, 204)" stroke-width="1px"></line><line x1="1496.9643312772114" y1="0" x2="1496.9643312772114" y2="5" style="visibility: inherit;" fill="rgb(0, 0, 0)" stroke="rgb(204, 204, 204)" stroke-width="1px"></line><line x1="1633.051997756958" y1="0" x2="1633.051997756958" y2="5" style="visibility: inherit;" fill="rgb(0, 0, 0)" stroke="rgb(204, 204, 204)" stroke-width="1px"></line></g><g transform="translate(0, 8)"><text style="text-anchor: middle; visibility: hidden; font-family: Roboto, sans-serif; font-size: 12px; font-weight: 200;" x="0" y="0" dx="0em" dy="0.95em" fill="rgb(255, 255, 255)" stroke="none" stroke-width="1px">-50k</text><text style="text-anchor: middle; visibility: inherit; font-family: Roboto, sans-serif; font-size: 12px; font-weight: 200;" x="136.08766647974647" y="0" dx="0em" dy="0.95em" fill="rgb(255, 255, 255)" stroke="none" stroke-width="1px">0</text><text style="text-anchor: middle; visibility: inherit; font-family: Roboto, sans-serif; font-size: 12px; font-weight: 200;" x="272.17533295949295" y="0" dx="0em" dy="0.95em" fill="rgb(255, 255, 255)" stroke="none" stroke-width="1px">50k</text><text style="text-anchor: middle; visibility: inherit; font-family: Roboto, sans-serif; font-size: 12px; font-weight: 200;" x="408.2629994392395" y="0" dx="0em" dy="0.95em" fill="rgb(255, 255, 255)" stroke="none" stroke-width="1px">100k</text><text style="text-anchor: middle; visibility: inherit; font-family: Roboto, sans-serif; font-size: 12px; font-weight: 200;" x="544.3506659189859" y="0" dx="0em" dy="0.95em" fill="rgb(255, 255, 255)" stroke="none" stroke-width="1px">150k</text><text style="text-anchor: middle; visibility: inherit; font-family: Roboto, sans-serif; font-size: 12px; font-weight: 200;" x="680.4383323987325" y="0" dx="0em" dy="0.95em" fill="rgb(255, 255, 255)" stroke="none" stroke-width="1px">200k</text><text style="text-anchor: middle; visibility: inherit; font-family: Roboto, sans-serif; font-size: 12px; font-weight: 200;" x="816.525998878479" y="0" dx="0em" dy="0.95em" fill="rgb(255, 255, 255)" stroke="none" stroke-width="1px">250k</text><text style="text-anchor: middle; visibility: inherit; font-family: Roboto, sans-serif; font-size: 12px; font-weight: 200;" x="952.6136653582255" y="0" dx="0em" dy="0.95em" fill="rgb(255, 255, 255)" stroke="none" stroke-width="1px">300k</text><text style="text-anchor: middle; visibility: inherit; font-family: Roboto, sans-serif; font-size: 12px; font-weight: 200;" x="1088.7013318379718" y="0" dx="0em" dy="0.95em" fill="rgb(255, 255, 255)" stroke="none" stroke-width="1px">350k</text><text style="text-anchor: middle; visibility: inherit; font-family: Roboto, sans-serif; font-size: 12px; font-weight: 200;" x="1224.7889983177183" y="0" dx="0em" dy="0.95em" fill="rgb(255, 255, 255)" stroke="none" stroke-width="1px">400k</text><text style="text-anchor: middle; visibility: inherit; font-family: Roboto, sans-serif; font-size: 12px; font-weight: 200;" x="1360.876664797465" y="0" dx="0em" dy="0.95em" fill="rgb(255, 255, 255)" stroke="none" stroke-width="1px">450k</text><text style="text-anchor: middle; visibility: inherit; font-family: Roboto, sans-serif; font-size: 12px; font-weight: 200;" x="1496.9643312772114" y="0" dx="0em" dy="0.95em" fill="rgb(255, 255, 255)" stroke="none" stroke-width="1px">500k</text><text style="text-anchor: middle; visibility: hidden; font-family: Roboto, sans-serif; font-size: 12px; font-weight: 200;" x="1633.051997756958" y="0" dx="0em" dy="0.95em" fill="rgb(255, 255, 255)" stroke="none" stroke-width="1px">550k</text></g><line x1="0" y1="0" x2="1633.051997756958" y2="0" fill="rgb(0, 0, 0)" stroke="rgb(204, 204, 204)" stroke-width="1px"></line></g></g></g></g></svg>