<svg viewBox="0 0 1705.3499755859375 400" xmlns="http://www.w3.org/2000/svg"><g><g><g><g><g><line x1="61.91500186920166" y1="376.9089994430542" x2="56.91500186920166" y2="376.9089994430542" style="visibility: inherit;" fill="rgb(0, 0, 0)" stroke="rgb(204, 204, 204)" stroke-width="1px"></line><line x1="61.91500186920166" y1="335.03022172715924" x2="56.91500186920166" y2="335.03022172715924" style="visibility: inherit;" fill="rgb(0, 0, 0)" stroke="rgb(204, 204, 204)" stroke-width="1px"></line><line x1="61.91500186920166" y1="293.15144401126435" x2="56.91500186920166" y2="293.15144401126435" style="visibility: inherit;" fill="rgb(0, 0, 0)" stroke="rgb(204, 204, 204)" stroke-width="1px"></line><line x1="61.91500186920166" y1="251.2726662953695" x2="56.91500186920166" y2="251.2726662953695" style="visibility: inherit;" fill="rgb(0, 0, 0)" stroke="rgb(204, 204, 204)" stroke-width="1px"></line><line x1="61.91500186920166" y1="209.39388857947452" x2="56.91500186920166" y2="209.39388857947452" style="visibility: inherit;" fill="rgb(0, 0, 0)" stroke="rgb(204, 204, 204)" stroke-width="1px"></line><line x1="61.91500186920166" y1="167.51511086357962" x2="56.91500186920166" y2="167.51511086357962" style="visibility: inherit;" fill="rgb(0, 0, 0)" stroke="rgb(204, 204, 204)" stroke-width="1px"></line><line x1="61.91500186920166" y1="125.63633314768475" x2="56.91500186920166" y2="125.63633314768475" style="visibility: inherit;" fill="rgb(0, 0, 0)" stroke="rgb(204, 204, 204)" stroke-width="1px"></line><line x1="61.91500186920166" y1="83.75755543178978" x2="56.91500186920166" y2="83.75755543178978" style="visibility: inherit;" fill="rgb(0, 0, 0)" stroke="rgb(204, 204, 204)" stroke-width="1px"></line><line x1="61.91500186920166" y1="41.87877771589489" x2="56.91500186920166" y2="41.87877771589489" style="visibility: inherit;" fill="rgb(0, 0, 0)" stroke="rgb(204, 204, 204)" stroke-width="1px"></line><line x1="61.91500186920166" y1="0" x2="56.91500186920166" y2="0" style="visibility: inherit;" fill="rgb(0, 0, 0)" stroke="rgb(204, 204, 204)" stroke-width="1px"></line></g><g transform="translate(51.91500186920166, 0)"><text style="text-anchor: end; visibility: hidden; font-family: Roboto, sans-serif; font-size: 12px; font-weight: 200;" x="0" y="376.9089994430542" dx="0em" dy="0.3em" fill="rgb(255, 255, 255)" stroke="none" stroke-width="1px">0.015</text><text style="text-anchor: end; visibility: inherit; font-family: Roboto, sans-serif; font-size: 12px; font-weight: 200;" x="0" y="335.03022172715924" dx="0em" dy="0.3em" fill="rgb(255, 255, 255)" stroke="none" stroke-width="1px">0.02</text><text style="text-anchor: end; visibility: inherit; font-family: Roboto, sans-serif; font-size: 12px; font-weight: 200;" x="0" y="293.15144401126435" dx="0em" dy="0.3em" fill="rgb(255, 255, 255)" stroke="none" stroke-width="1px">0.025</text><text style="text-anchor: end; visibility: inherit; font-family: Roboto, sans-serif; font-size: 12px; font-weight: 200;" x="0" y="251.2726662953695" dx="0em" dy="0.3em" fill="rgb(255, 255, 255)" stroke="none" stroke-width="1px">0.03</text><text style="text-anchor: end; visibility: inherit; font-family: Roboto, sans-serif; font-size: 12px; font-weight: 200;" x="0" y="209.39388857947452" dx="0em" dy="0.3em" fill="rgb(255, 255, 255)" stroke="none" stroke-width="1px">0.035</text><text style="text-anchor: end; visibility: inherit; font-family: Roboto, sans-serif; font-size: 12px; font-weight: 200;" x="0" y="167.51511086357962" dx="0em" dy="0.3em" fill="rgb(255, 255, 255)" stroke="none" stroke-width="1px">0.04</text><text style="text-anchor: end; visibility: inherit; font-family: Roboto, sans-serif; font-size: 12px; font-weight: 200;" x="0" y="125.63633314768475" dx="0em" dy="0.3em" fill="rgb(255, 255, 255)" stroke="none" stroke-width="1px">0.045</text><text style="text-anchor: end; visibility: inherit; font-family: Roboto, sans-serif; font-size: 12px; font-weight: 200;" x="0" y="83.75755543178978" dx="0em" dy="0.3em" fill="rgb(255, 255, 255)" stroke="none" stroke-width="1px">0.05</text><text style="text-anchor: end; visibility: inherit; font-family: Roboto, sans-serif; font-size: 12px; font-weight: 200;" x="0" y="41.87877771589489" dx="0em" dy="0.3em" fill="rgb(255, 255, 255)" stroke="none" stroke-width="1px">0.055</text><text style="text-anchor: end; visibility: hidden; font-family: Roboto, sans-serif; font-size: 12px; font-weight: 200;" x="0" y="0" dx="0em" dy="0.3em" fill="rgb(255, 255, 255)" stroke="none" stroke-width="1px">0.06</text></g><line x1="61.91500186920166" y1="0" x2="61.91500186920166" y2="376.9089994430542" fill="rgb(0, 0, 0)" stroke="rgb(204, 204, 204)" stroke-width="1px"></line></g></g><g transform="translate(61, 0)" clip-path="url(#clip_0)"><clipPath id="clip_0"><rect width="1643" height="376"></rect></clipPath><g><g><g><line x1="0" y1="0" x2="0" y2="376.9089994430542" fill="rgb(0, 0, 0)" stroke="rgb(189, 189, 189)" stroke-width="1px" opacity="0.25"></line><line x1="136.95291651089985" y1="0" x2="136.95291651089985" y2="376.9089994430542" fill="rgb(0, 0, 0)" stroke="rgb(189, 189, 189)" stroke-width="1px" opacity="0.25"></line><line x1="273.9058330217997" y1="0" x2="273.9058330217997" y2="376.9089994430542" fill="rgb(0, 0, 0)" stroke="rgb(189, 189, 189)" stroke-width="1px" opacity="0.25"></line><line x1="410.85874953269956" y1="0" x2="410.85874953269956" y2="376.9089994430542" fill="rgb(0, 0, 0)" stroke="rgb(189, 189, 189)" stroke-width="1px" opacity="0.25"></line><line x1="547.8116660435994" y1="0" x2="547.8116660435994" y2="376.9089994430542" fill="rgb(0, 0, 0)" stroke="rgb(189, 189, 189)" stroke-width="1px" opacity="0.25"></line><line x1="684.7645825544993" y1="0" x2="684.7645825544993" y2="376.9089994430542" fill="rgb(0, 0, 0)" stroke="rgb(189, 189, 189)" stroke-width="1px" opacity="0.25"></line><line x1="821.7174990653991" y1="0" x2="821.7174990653991" y2="376.9089994430542" fill="rgb(0, 0, 0)" stroke="rgb(189, 189, 189)" stroke-width="1px" opacity="0.25"></line><line x1="958.6704155762991" y1="0" x2="958.6704155762991" y2="376.9089994430542" fill="rgb(0, 0, 0)" stroke="rgb(189, 189, 189)" stroke-width="1px" opacity="0.25"></line><line x1="1095.6233320871988" y1="0" x2="1095.6233320871988" y2="376.9089994430542" fill="rgb(0, 0, 0)" stroke="rgb(189, 189, 189)" stroke-width="1px" opacity="0.25"></line><line x1="1232.5762485980986" y1="0" x2="1232.5762485980986" y2="376.9089994430542" fill="rgb(0, 0, 0)" stroke="rgb(189, 189, 189)" stroke-width="1px" opacity="0.25"></line><line x1="1369.5291651089985" y1="0" x2="1369.5291651089985" y2="376.9089994430542" fill="rgb(0, 0, 0)" stroke="rgb(189, 189, 189)" stroke-width="1px" opacity="0.25"></line><line x1="1506.4820816198983" y1="0" x2="1506.4820816198983" y2="376.9089994430542" fill="rgb(0, 0, 0)" stroke="rgb(189, 189, 189)" stroke-width="1px" opacity="0.25"></line><line x1="1643.4349981307982" y1="0" x2="1643.4349981307982" y2="376.9089994430542" fill="rgb(0, 0, 0)" stroke="rgb(189, 189, 189)" stroke-width="1px" opacity="0.25"></line></g><g><line x1="0" y1="376.9089994430542" x2="1643.4349981307982" y2="376.9089994430542" fill="rgb(0, 0, 0)" stroke="rgb(189, 189, 189)" stroke-width="1px" opacity="0.25"></line><line x1="0" y1="335.03022172715924" x2="1643.4349981307982" y2="335.03022172715924" fill="rgb(0, 0, 0)" stroke="rgb(189, 189, 189)" stroke-width="1px" opacity="0.25"></line><line x1="0" y1="293.15144401126435" x2="1643.4349981307982" y2="293.15144401126435" fill="rgb(0, 0, 0)" stroke="rgb(189, 189, 189)" stroke-width="1px" opacity="0.25"></line><line x1="0" y1="251.2726662953695" x2="1643.4349981307982" y2="251.2726662953695" fill="rgb(0, 0, 0)" stroke="rgb(189, 189, 189)" stroke-width="1px" opacity="0.25"></line><line x1="0" y1="209.39388857947452" x2="1643.4349981307982" y2="209.39388857947452" fill="rgb(0, 0, 0)" stroke="rgb(189, 189, 189)" stroke-width="1px" opacity="0.25"></line><line x1="0" y1="167.51511086357962" x2="1643.4349981307982" y2="167.51511086357962" fill="rgb(0, 0, 0)" stroke="rgb(189, 189, 189)" stroke-width="1px" opacity="0.25"></line><line x1="0" y1="125.63633314768475" x2="1643.4349981307982" y2="125.63633314768475" fill="rgb(0, 0, 0)" stroke="rgb(189, 189, 189)" stroke-width="1px" opacity="0.25"></line><line x1="0" y1="83.75755543178978" x2="1643.4349981307982" y2="83.75755543178978" fill="rgb(0, 0, 0)" stroke="rgb(189, 189, 189)" stroke-width="1px" opacity="0.25"></line><line x1="0" y1="41.87877771589489" x2="1643.4349981307982" y2="41.87877771589489" fill="rgb(0, 0, 0)" stroke="rgb(189, 189, 189)" stroke-width="1px" opacity="0.25"></line><line x1="0" y1="0" x2="1643.4349981307982" y2="0" fill="rgb(0, 0, 0)" stroke="rgb(189, 189, 189)" stroke-width="1px" opacity="0.25"></line></g></g></g><g><g><line x1="0" y1="502.5453325907389" x2="1643.4349981307982" y2="502.5453325907389" fill="rgb(0, 0, 0)" stroke="rgb(153, 153, 153)" stroke-width="1.5px"></line></g></g><g><g><line x1="136.95291651089985" y1="0" x2="136.95291651089985" y2="376.9089994430542" fill="rgb(0, 0, 0)" stroke="rgb(153, 153, 153)" stroke-width="1.5px"></line></g></g><g><g><g><g><g><path style="fill: none;" stroke="rgb(0, 119, 187)" stroke-width="2px" d="M159.3912823520457,108.27034097228248L181.82964819319153,326.0960910013609L204.26801403433737,286.29593917899535L226.70637987548318,253.34889682492897L249.14474571662905,327.89568902088143L271.5831115577748,270.44056973015967L294.02147739892064,195.6048372218009L316.4598432400665,199.12240808152373L338.8982090812123,201.09146940616327L361.3365749223582,197.42546954631428L383.774940763504,130.48979367403643L406.21330660464986,42.683683366806335L428.65167244579567,129.76448711906454L451.0900382869415,73.83556220905787L473.52840412808735,104.49400194592377L495.96676996923316,-63.817628591397956L518.405135810379,-24.83082962335643L540.8435016515249,106.94573005389283L563.2818674926706,84.87850249883788L585.7202333338165,19.493134135592825L608.1585991749623,20.803725440062337L630.5969650161081,98.631258978887L653.0353308572539,8.422518485246899L675.4736966983999,110.93491633355734L697.9120625395457,165.84734484438903L720.3504283806915,166.89479740675557L742.7887942218373,162.00213422829003L765.2271600629832,276.74843101013863L787.6655259041289,209.25492701691573L810.1038917452748,272.1266472528861L832.5422575864205,298.09171132862593L854.9806234275666,271.3932183615472L877.4189892687123,291.7726727175306L899.8573551098581,356.04208901525107L922.295720951004,301.255776892968L944.7340867921498,262.91398379924L967.1724526332956,322.2146119801148L989.6108184744415,70.23624167302947L1012.0491843155872,159.7806223135552L1034.487550156733,251.18383652950973L1056.925915997879,257.46028785440876L1079.3642818390247,210.20684690225897L1101.8026476801706,221.32062268488528L1124.2410135213165,256.5658373067541L1146.6793793624622,217.9007469198516L1169.1177452036081,119.45076397734047L1191.556111044754,142.7375990483212L1213.9944768858998,279.6570394567931L1236.4328427270457,244.33137070134563L1258.8712085681914,254.7290903329425L1281.3095744093373,279.0647525213912L1303.7479402504832,253.68909395801143L1326.186306091629,280.2300091153749L1348.6246719327748,307.9125158204395L1371.0630377739208,327.333705359055L1393.5014036150665,337.0437999987148L1415.9397694562122,394.65599182427L1438.378135297358,420.58376415349704L1460.816501138504,259.31096939759806L1483.2548669796497,191.78882190624122L1505.6932328207956,254.48995261112935L1528.1315986619416,163.33543441987507" fill="none"></path></g><g><path style="fill: none;" stroke="rgb(255, 112, 67)" stroke-width="2px" d="M204.26801403433737,427.71746083112595L226.70637987548318,375.6496988775374L249.14474571662905,326.1984959722915L271.5831115577748,283.23669369041653L294.02147739892064,332.25299293928356L316.4598432400665,349.79868194488563L338.8982090812123,274.1000166670533L361.3365749223582,141.47952928007555L383.774940763504,145.7973336853915L406.21330660464986,40.99343726932414L428.65167244579567,123.32525213963692L451.0900382869415,96.88506766638696L473.52840412808735,50.39800775188097L495.96676996923316,112.77477076427692L518.405135810379,188.58835178453273L540.8435016515249,143.88070446498065L563.2818674926706,166.75220157068895L585.7202333338165,61.66337050046036L608.1585991749623,-5.835141909165776L630.5969650161081,45.53334150498966L653.0353308572539,191.32728362193706L675.4736966983999,154.8836759241393L697.9120625395457,240.67992238018883L720.3504283806915,227.07966383577963L742.7887942218373,188.34880248030058L765.2271600629832,173.23864324642204L787.6655259041289,249.18773064967635L810.1038917452748,234.33147401551423L832.5422575864205,293.0515481469657L854.9806234275666,208.8125044973398L877.4189892687123,224.36925614859226L899.8573551098581,255.02099563836853L922.295720951004,113.35044784909347L944.7340867921498,144.39405139291176L967.1724526332956,51.47297998712961L989.6108184744415,98.2190553243854L1012.0491843155872,159.8535620131136L1034.487550156733,271.93183008261633L1056.925915997879,316.8386713502536L1079.3642818390247,238.1656437602999L1101.8026476801706,279.4021171102178L1124.2410135213165,310.89204635114186L1146.6793793624622,226.6738277914476L1169.1177452036081,243.5722274848549L1191.556111044754,238.57928707028245L1213.9944768858998,271.3174896479132L1236.4328427270457,279.40693980251757L1258.8712085681914,191.32162321538573L1281.3095744093373,209.93836691481368L1303.7479402504832,69.02178751777456L1326.186306091629,-14.761336797750605L1348.6246719327748,97.3819683048463L1371.0630377739208,170.85365950063883L1393.5014036150665,104.36075112297388L1415.9397694562122,144.52136095858123L1438.378135297358,212.27553468388894L1460.816501138504,155.18362608606282L1483.2548669796497,269.4365977055448L1505.6932328207956,318.15321740358814L1528.1315986619416,323.3560584527954" fill="none"></path></g><g><path style="fill: none;" stroke="rgb(187, 187, 187)" stroke-width="2px" d="M159.3912823520457,230.45085701352863L181.82964819319153,364.24555129248216L204.26801403433737,408.1373836831105L226.70637987548318,225.04738384686326L249.14474571662905,251.28218107746883L271.5831115577748,343.08575426694586L294.02147739892064,402.8160371011661L316.4598432400665,413.38818972773805L338.8982090812123,349.1253661954118L361.3365749223582,350.79346305714455L383.774940763504,287.9610665383142L406.21330660464986,254.66018298751874L428.65167244579567,188.50297171222329L451.0900382869415,190.8165388236737L473.52840412808735,223.60691829207042L495.96676996923316,157.61850803471822L518.405135810379,123.4060501669135L540.8435016515249,-104.5900582984083L585.7202333338165,-13.373708933304101L608.1585991749623,89.78175139285761L630.5969650161081,128.97531020054788L653.0353308572539,171.55960586512336L675.4736966983999,117.15547742279422L697.9120625395457,193.35126500260662L720.3504283806915,63.61912345130993L742.7887942218373,172.98730554084221L765.2271600629832,192.8032018993479L787.6655259041289,148.15227145285235L810.1038917452748,0.2036119846252977L832.5422575864205,65.36145924413816L854.9806234275666,180.2183123546316L877.4189892687123,227.61024275992003L899.8573551098581,289.1721680330317L922.295720951004,324.831283175358L944.7340867921498,334.6732803579149L967.1724526332956,269.008301398994L989.6108184744415,220.5096774903774L1012.0491843155872,243.24775997252965L1034.487550156733,165.28078305341992L1056.925915997879,106.8448824583021L1079.3642818390247,182.30814372465525L1101.8026476801706,230.55115064216207L1124.2410135213165,283.42184244785545L1146.6793793624622,264.7384044588024L1169.1177452036081,206.7521189951856L1191.556111044754,235.5555619289526L1213.9944768858998,167.36238801256053L1236.4328427270457,243.6170873332903L1258.8712085681914,278.7366235205584L1281.3095744093373,96.14007079312029L1303.7479402504832,99.96974776821686L1326.186306091629,154.76939076271486L1348.6246719327748,193.88600624849371L1371.0630377739208,235.96422149769276L1393.5014036150665,158.5590685505782L1415.9397694562122,56.59796823805064L1438.378135297358,37.95444166826038L1460.816501138504,191.68646160466912L1483.2548669796497,235.10458870483447L1505.6932328207956,271.27753282106937L1528.1315986619416,287.7669006982542" fill="none"></path></g></g></g></g><g opacity="0.2"><g><g><g><path style="fill: none;" stroke="rgb(0, 119, 187)" stroke-width="2px" d="M159.3912823520457,108.27034097228248L181.82964819319153,456.7915410188079L204.26801403433737,248.08779342952445L226.70637987548318,214.6031750165469L249.14474571662905,425.22398091191684L271.5831115577748,190.9594559081468L294.02147739892064,88.58854236312779L316.4598432400665,204.25106016367982L338.8982090812123,203.99545238953496L361.3365749223582,191.98188700472622L383.774940763504,30.693381519315526L406.21330660464986,-88.54764511926466L428.65167244579567,260.1013588143332L451.0900382869415,-9.94825456971822L473.52840412808735,150.44562370618544L495.96676996923316,-316.1663679952682L518.405135810379,33.63287092198152L540.8435016515249,304.5771115155399L563.2818674926706,51.78102288626703L585.7202333338165,-78.57894192761482L608.1585991749623,22.76954052082469L630.5969650161081,215.36999833898153L653.0353308572539,-126.88881124099457L675.4736966983999,264.7022987489408L697.9120625395457,248.21559731659684L720.3504283806915,168.46597178339854L742.7887942218373,154.66315197957576L765.2271600629832,448.867700020317L787.6655259041289,108.01473319813762L810.1038917452748,366.43419285859756L832.5422575864205,337.0392988319379L854.9806234275666,231.3454842230357L877.4189892687123,322.3418518186081L899.8573551098581,452.4462088583451L922.295720951004,219.07631106408206L944.7340867921498,205.40129514733172L967.1724526332956,411.16555333394916L989.6108184744415,-307.7313114484876L1012.0491843155872,294.0971927756004L1034.487550156733,388.2886575479837L1056.925915997879,266.8749648291721L1079.3642818390247,139.32668553088376L1101.8026476801706,237.99128635080217L1124.2410135213165,309.43365922429234L1146.6793793624622,159.90311134954553L1169.1177452036081,-28.224210421076187L1191.556111044754,177.66785165261373L1213.9944768858998,485.0362000618156L1236.4328427270457,191.34286756936407L1258.8712085681914,270.3256697801278L1281.3095744093373,315.5682458037691L1303.7479402504832,215.62560611312637L1326.186306091629,320.0413818513043L1348.6246719327748,349.43627587796396L1371.0630377739208,356.4654896669478L1393.5014036150665,351.6089419581953L1415.9397694562122,481.07427956257015L1438.378135297358,459.4754226473289L1460.816501138504,17.40177726378248L1483.2548669796497,90.50560066921426L1505.6932328207956,348.5416486684569L1528.1315986619416,26.60365713299767" fill="none"></path></g><g><path style="fill: none;" stroke="rgb(255, 112, 67)" stroke-width="2px" d="M204.26801403433737,396.7237140947642L226.70637987548318,314.4180108201172L249.14474571662905,261.6350054592023L271.5831115577748,223.8050548857621L294.02147739892064,402.3470851259513L316.4598432400665,375.38046495366785L338.8982090812123,162.4591890909942L361.3365749223582,-55.44643836750443L383.774940763504,152.23487812519951L406.21330660464986,-115.64206917862049L428.65167244579567,246.55414678465522L451.0900382869415,57.276590030381655L473.52840412808735,-19.277938326005824L495.96676996923316,206.29592235683876L518.405135810379,302.2766415482361L540.8435016515249,76.83058475246393L563.2818674926706,201.055962986869L585.7202333338165,-95.9602705694658L608.1585991749623,-107.07920874476746L630.5969650161081,122.58437632439501L653.0353308572539,410.01531835029726L675.4736966983999,100.21869608671919L697.9120625395457,369.3736822612635L720.3504283806915,206.6793340180561L742.7887942218373,130.25260954874102L765.2271600629832,150.57342759325786L787.6655259041289,363.1112917947143L810.1038917452748,212.04709727509825L832.5422575864205,381.13163987192735L854.9806234275666,82.45395578365097L877.4189892687123,247.70438176830712L899.8573551098581,300.99860267751177L922.295720951004,-99.15536774627658L944.7340867921498,190.9594559081468L967.1724526332956,-87.90862568390251L989.6108184744415,168.3381678963261L1012.0491843155872,252.3053217029147L1034.487550156733,440.04923181231914L1056.925915997879,384.1989331616658L1079.3642818390247,120.15610247001881L1101.8026476801706,341.2568271053282L1124.2410135213165,358.1269401988894L1146.6793793624622,100.34649997379165L1169.1177452036081,268.91982702233105L1191.556111044754,231.08987644889078L1213.9944768858998,320.4247935125216L1236.4328427270457,291.54111503415174L1258.8712085681914,59.19364833646812L1281.3095744093373,237.86348246372975L1303.7479402504832,-142.353081576759L1326.186306091629,-140.43602327067254L1348.6246719327748,265.59692595844774L1371.0630377739208,281.06119629421215L1393.5014036150665,4.62138855653918L1415.9397694562122,204.76227571196958L1438.378135297358,313.9067952718275L1460.816501138504,69.54576318933526L1483.2548669796497,440.8160551347537L1505.6932328207956,391.22814695064966L1528.1315986619416,331.160320026606" fill="none"></path></g><g><path style="fill: none;" stroke="rgb(187, 187, 187)" stroke-width="2px" d="M159.3912823520457,230.45085701352863L181.82964819319153,444.5223678598542L204.26801403433737,450.2735427781137L226.70637987548318,9.733544039436476L249.14474571662905,285.53433234174736L271.5831115577748,470.0831452743409L316.4598432400665,428.802489749945L338.8982090812123,254.35018389607367L361.3365749223582,353.27039249013694L383.774940763504,194.28235697203002L406.21330660464986,204.89007959904202L428.65167244579567,89.48316957263482L451.0900382869415,194.28235697203002L473.52840412808735,272.7539436345041L495.96676996923316,58.682432788178424L518.405135810379,72.10184093078388L540.8435016515249,-446.5263328091501L563.2818674926706,-266.32285203701923L585.7202333338165,220.48215382187888L608.1585991749623,244.50928459149628L630.5969650161081,187.76435873133596L653.0353308572539,235.43520860935357L675.4736966983999,35.54992922806799L697.9120625395457,307.6444048052783L720.3504283806915,-130.9785356273125L742.7887942218373,337.0392988319379L765.2271600629832,222.52701601503776L787.6655259041289,81.17591691292665L810.1038917452748,-221.71929544874L832.5422575864205,163.09820852635633L854.9806234275666,352.5035691677024L877.4189892687123,298.698132710208L899.8573551098581,381.5150515331447L922.295720951004,378.3199543563338L944.7340867921498,349.43627587796396L967.1724526332956,170.51083397655748L989.6108184744415,147.76174207766437L1012.0491843155872,277.3548835691117L1034.487550156733,48.330317935311335L1056.925915997879,19.191031682796538L1079.3642818390247,295.5030355333971L1101.8026476801706,302.91566098359823L1124.2410135213165,362.72788013349697L1146.6793793624622,236.71324748007785L1169.1177452036081,119.77269080880147L1191.556111044754,278.76072632690835L1213.9944768858998,65.07262714180007L1236.4328427270457,357.999136311817L1258.8712085681914,331.41592780075086L1281.3095744093373,-177.75475829582302L1303.7479402504832,105.71426323083382L1326.186306091629,236.96885525422275L1348.6246719327748,252.56092947705957L1371.0630377739208,299.08154437142525L1393.5014036150665,42.45133912997938L1415.9397694562122,-96.34368223068304L1438.378135297358,9.989151813581346L1460.816501138504,422.2844915092509L1483.2548669796497,300.23177935507715L1505.6932328207956,325.5369489954189L1528.1315986619416,312.50095251403076" fill="none"></path></g></g></g></g></g></g><g transform="translate(61, 376)" clip-path="url(#clip_1)"><clipPath id="clip_1"><rect width="1643" height="23"></rect></clipPath><g><g><line x1="0" y1="0" x2="0" y2="5" style="visibility: inherit;" fill="rgb(0, 0, 0)" stroke="rgb(204, 204, 204)" stroke-width="1px"></line><line x1="136.95291651089985" y1="0" x2="136.95291651089985" y2="5" style="visibility: inherit;" fill="rgb(0, 0, 0)" stroke="rgb(204, 204, 204)" stroke-width="1px"></line><line x1="273.9058330217997" y1="0" x2="273.9058330217997" y2="5" style="visibility: inherit;" fill="rgb(0, 0, 0)" stroke="rgb(204, 204, 204)" stroke-width="1px"></line><line x1="410.85874953269956" y1="0" x2="410.85874953269956" y2="5" style="visibility: inherit;" fill="rgb(0, 0, 0)" stroke="rgb(204, 204, 204)" stroke-width="1px"></line><line x1="547.8116660435994" y1="0" x2="547.8116660435994" y2="5" style="visibility: inherit;" fill="rgb(0, 0, 0)" stroke="rgb(204, 204, 204)" stroke-width="1px"></line><line x1="684.7645825544993" y1="0" x2="684.7645825544993" y2="5" style="visibility: inherit;" fill="rgb(0, 0, 0)" stroke="rgb(204, 204, 204)" stroke-width="1px"></line><line x1="821.7174990653991" y1="0" x2="821.7174990653991" y2="5" style="visibility: inherit;" fill="rgb(0, 0, 0)" stroke="rgb(204, 204, 204)" stroke-width="1px"></line><line x1="958.6704155762991" y1="0" x2="958.6704155762991" y2="5" style="visibility: inherit;" fill="rgb(0, 0, 0)" stroke="rgb(204, 204, 204)" stroke-width="1px"></line><line x1="1095.6233320871988" y1="0" x2="1095.6233320871988" y2="5" style="visibility: inherit;" fill="rgb(0, 0, 0)" stroke="rgb(204, 204, 204)" stroke-width="1px"></line><line x1="1232.5762485980986" y1="0" x2="1232.5762485980986" y2="5" style="visibility: inherit;" fill="rgb(0, 0, 0)" stroke="rgb(204, 204, 204)" stroke-width="1px"></line><line x1="1369.5291651089985" y1="0" x2="1369.5291651089985" y2="5" style="visibility: inherit;" fill="rgb(0, 0, 0)" stroke="rgb(204, 204, 204)" stroke-width="1px"></line><line x1="1506.4820816198983" y1="0" x2="1506.4820816198983" y2="5" style="visibility: inherit;" fill="rgb(0, 0, 0)" stroke="rgb(204, 204, 204)" stroke-width="1px"></line><line x1="1643.4349981307982" y1="0" x2="1643.4349981307982" y2="5" style="visibility: inherit;" fill="rgb(0, 0, 0)" stroke="rgb(204, 204, 204)" stroke-width="1px"></line></g><g transform="translate(0, 8)"><text style="text-anchor: middle; visibility: hidden; font-family: Roboto, sans-serif; font-size: 12px; font-weight: 200;" x="0" y="0" dx="0em" dy="0.95em" fill="rgb(255, 255, 255)" stroke="none" stroke-width="1px">-50k</text><text style="text-anchor: middle; visibility: inherit; font-family: Roboto, sans-serif; font-size: 12px; font-weight: 200;" x="136.95291651089985" y="0" dx="0em" dy="0.95em" fill="rgb(255, 255, 255)" stroke="none" stroke-width="1px">0</text><text style="text-anchor: middle; visibility: inherit; font-family: Roboto, sans-serif; font-size: 12px; font-weight: 200;" x="273.9058330217997" y="0" dx="0em" dy="0.95em" fill="rgb(255, 255, 255)" stroke="none" stroke-width="1px">50k</text><text style="text-anchor: middle; visibility: inherit; font-family: Roboto, sans-serif; font-size: 12px; font-weight: 200;" x="410.85874953269956" y="0" dx="0em" dy="0.95em" fill="rgb(255, 255, 255)" stroke="none" stroke-width="1px">100k</text><text style="text-anchor: middle; visibility: inherit; font-family: Roboto, sans-serif; font-size: 12px; font-weight: 200;" x="547.8116660435994" y="0" dx="0em" dy="0.95em" fill="rgb(255, 255, 255)" stroke="none" stroke-width="1px">150k</text><text style="text-anchor: middle; visibility: inherit; font-family: Roboto, sans-serif; font-size: 12px; font-weight: 200;" x="684.7645825544993" y="0" dx="0em" dy="0.95em" fill="rgb(255, 255, 255)" stroke="none" stroke-width="1px">200k</text><text style="text-anchor: middle; visibility: inherit; font-family: Roboto, sans-serif; font-size: 12px; font-weight: 200;" x="821.7174990653991" y="0" dx="0em" dy="0.95em" fill="rgb(255, 255, 255)" stroke="none" stroke-width="1px">250k</text><text style="text-anchor: middle; visibility: inherit; font-family: Roboto, sans-serif; font-size: 12px; font-weight: 200;" x="958.6704155762991" y="0" dx="0em" dy="0.95em" fill="rgb(255, 255, 255)" stroke="none" stroke-width="1px">300k</text><text style="text-anchor: middle; visibility: inherit; font-family: Roboto, sans-serif; font-size: 12px; font-weight: 200;" x="1095.6233320871988" y="0" dx="0em" dy="0.95em" fill="rgb(255, 255, 255)" stroke="none" stroke-width="1px">350k</text><text style="text-anchor: middle; visibility: inherit; font-family: Roboto, sans-serif; font-size: 12px; font-weight: 200;" x="1232.5762485980986" y="0" dx="0em" dy="0.95em" fill="rgb(255, 255, 255)" stroke="none" stroke-width="1px">400k</text><text style="text-anchor: middle; visibility: inherit; font-family: Roboto, sans-serif; font-size: 12px; font-weight: 200;" x="1369.5291651089985" y="0" dx="0em" dy="0.95em" fill="rgb(255, 255, 255)" stroke="none" stroke-width="1px">450k</text><text style="text-anchor: middle; visibility: inherit; font-family: Roboto, sans-serif; font-size: 12px; font-weight: 200;" x="1506.4820816198983" y="0" dx="0em" dy="0.95em" fill="rgb(255, 255, 255)" stroke="none" stroke-width="1px">500k</text><text style="text-anchor: middle; visibility: hidden; font-family: Roboto, sans-serif; font-size: 12px; font-weight: 200;" x="1643.4349981307982" y="0" dx="0em" dy="0.95em" fill="rgb(255, 255, 255)" stroke="none" stroke-width="1px">550k</text></g><line x1="0" y1="0" x2="1643.4349981307982" y2="0" fill="rgb(0, 0, 0)" stroke="rgb(204, 204, 204)" stroke-width="1px"></line></g></g></g></g></svg>