<svg viewBox="0 0 1705.3499755859375 400" xmlns="http://www.w3.org/2000/svg"><g><g><g><g><g><line x1="72.29800224304199" y1="376.9089994430542" x2="67.29800224304199" y2="376.9089994430542" style="visibility: inherit;" fill="rgb(0, 0, 0)" stroke="rgb(204, 204, 204)" stroke-width="1px"></line><line x1="72.29800224304199" y1="339.2180994987488" x2="67.29800224304199" y2="339.2180994987488" style="visibility: inherit;" fill="rgb(0, 0, 0)" stroke="rgb(204, 204, 204)" stroke-width="1px"></line><line x1="72.29800224304199" y1="301.5271995544433" x2="67.29800224304199" y2="301.5271995544433" style="visibility: inherit;" fill="rgb(0, 0, 0)" stroke="rgb(204, 204, 204)" stroke-width="1px"></line><line x1="72.29800224304199" y1="263.8362996101379" x2="67.29800224304199" y2="263.8362996101379" style="visibility: inherit;" fill="rgb(0, 0, 0)" stroke="rgb(204, 204, 204)" stroke-width="1px"></line><line x1="72.29800224304199" y1="226.14539966583246" x2="67.29800224304199" y2="226.14539966583246" style="visibility: inherit;" fill="rgb(0, 0, 0)" stroke="rgb(204, 204, 204)" stroke-width="1px"></line><line x1="72.29800224304199" y1="188.45449972152707" x2="67.29800224304199" y2="188.45449972152707" style="visibility: inherit;" fill="rgb(0, 0, 0)" stroke="rgb(204, 204, 204)" stroke-width="1px"></line><line x1="72.29800224304199" y1="150.76359977722169" x2="67.29800224304199" y2="150.76359977722169" style="visibility: inherit;" fill="rgb(0, 0, 0)" stroke="rgb(204, 204, 204)" stroke-width="1px"></line><line x1="72.29800224304199" y1="113.07269983291623" x2="67.29800224304199" y2="113.07269983291623" style="visibility: inherit;" fill="rgb(0, 0, 0)" stroke="rgb(204, 204, 204)" stroke-width="1px"></line><line x1="72.29800224304199" y1="75.38179988861079" x2="67.29800224304199" y2="75.38179988861079" style="visibility: inherit;" fill="rgb(0, 0, 0)" stroke="rgb(204, 204, 204)" stroke-width="1px"></line><line x1="72.29800224304199" y1="37.69089994430533" x2="67.29800224304199" y2="37.69089994430533" style="visibility: inherit;" fill="rgb(0, 0, 0)" stroke="rgb(204, 204, 204)" stroke-width="1px"></line><line x1="72.29800224304199" y1="0" x2="67.29800224304199" y2="0" style="visibility: inherit;" fill="rgb(0, 0, 0)" stroke="rgb(204, 204, 204)" stroke-width="1px"></line></g><g transform="translate(62.29800224304199, 0)"><text style="text-anchor: end; visibility: hidden; font-family: Roboto, sans-serif; font-size: 12px; font-weight: 200;" x="0" y="376.9089994430542" dx="0em" dy="0.3em" fill="rgb(255, 255, 255)" stroke="none" stroke-width="1px">1.5e-3</text><text style="text-anchor: end; visibility: inherit; font-family: Roboto, sans-serif; font-size: 12px; font-weight: 200;" x="0" y="339.2180994987488" dx="0em" dy="0.3em" fill="rgb(255, 255, 255)" stroke="none" stroke-width="1px">2e-3</text><text style="text-anchor: end; visibility: inherit; font-family: Roboto, sans-serif; font-size: 12px; font-weight: 200;" x="0" y="301.5271995544433" dx="0em" dy="0.3em" fill="rgb(255, 255, 255)" stroke="none" stroke-width="1px">2.5e-3</text><text style="text-anchor: end; visibility: inherit; font-family: Roboto, sans-serif; font-size: 12px; font-weight: 200;" x="0" y="263.8362996101379" dx="0em" dy="0.3em" fill="rgb(255, 255, 255)" stroke="none" stroke-width="1px">3e-3</text><text style="text-anchor: end; visibility: inherit; font-family: Roboto, sans-serif; font-size: 12px; font-weight: 200;" x="0" y="226.14539966583246" dx="0em" dy="0.3em" fill="rgb(255, 255, 255)" stroke="none" stroke-width="1px">3.5e-3</text><text style="text-anchor: end; visibility: inherit; font-family: Roboto, sans-serif; font-size: 12px; font-weight: 200;" x="0" y="188.45449972152707" dx="0em" dy="0.3em" fill="rgb(255, 255, 255)" stroke="none" stroke-width="1px">4e-3</text><text style="text-anchor: end; visibility: inherit; font-family: Roboto, sans-serif; font-size: 12px; font-weight: 200;" x="0" y="150.76359977722169" dx="0em" dy="0.3em" fill="rgb(255, 255, 255)" stroke="none" stroke-width="1px">4.5e-3</text><text style="text-anchor: end; visibility: inherit; font-family: Roboto, sans-serif; font-size: 12px; font-weight: 200;" x="0" y="113.07269983291623" dx="0em" dy="0.3em" fill="rgb(255, 255, 255)" stroke="none" stroke-width="1px">5e-3</text><text style="text-anchor: end; visibility: inherit; font-family: Roboto, sans-serif; font-size: 12px; font-weight: 200;" x="0" y="75.38179988861079" dx="0em" dy="0.3em" fill="rgb(255, 255, 255)" stroke="none" stroke-width="1px">5.5e-3</text><text style="text-anchor: end; visibility: inherit; font-family: Roboto, sans-serif; font-size: 12px; font-weight: 200;" x="0" y="37.69089994430533" dx="0em" dy="0.3em" fill="rgb(255, 255, 255)" stroke="none" stroke-width="1px">6e-3</text><text style="text-anchor: end; visibility: hidden; font-family: Roboto, sans-serif; font-size: 12px; font-weight: 200;" x="0" y="0" dx="0em" dy="0.3em" fill="rgb(255, 255, 255)" stroke="none" stroke-width="1px">6.5e-3</text></g><line x1="72.29800224304199" y1="0" x2="72.29800224304199" y2="376.9089994430542" fill="rgb(0, 0, 0)" stroke="rgb(204, 204, 204)" stroke-width="1px"></line></g></g><g transform="translate(72, 0)" clip-path="url(#clip_0)"><clipPath id="clip_0"><rect width="1633" height="376"></rect></clipPath><g><g><g><line x1="0" y1="0" x2="0" y2="376.9089994430542" fill="rgb(0, 0, 0)" stroke="rgb(189, 189, 189)" stroke-width="1px" opacity="0.25"></line><line x1="233.29314253670827" y1="0" x2="233.29314253670827" y2="376.9089994430542" fill="rgb(0, 0, 0)" stroke="rgb(189, 189, 189)" stroke-width="1px" opacity="0.25"></line><line x1="466.58628507341655" y1="0" x2="466.58628507341655" y2="376.9089994430542" fill="rgb(0, 0, 0)" stroke="rgb(189, 189, 189)" stroke-width="1px" opacity="0.25"></line><line x1="699.8794276101248" y1="0" x2="699.8794276101248" y2="376.9089994430542" fill="rgb(0, 0, 0)" stroke="rgb(189, 189, 189)" stroke-width="1px" opacity="0.25"></line><line x1="933.1725701468331" y1="0" x2="933.1725701468331" y2="376.9089994430542" fill="rgb(0, 0, 0)" stroke="rgb(189, 189, 189)" stroke-width="1px" opacity="0.25"></line><line x1="1166.4657126835414" y1="0" x2="1166.4657126835414" y2="376.9089994430542" fill="rgb(0, 0, 0)" stroke="rgb(189, 189, 189)" stroke-width="1px" opacity="0.25"></line><line x1="1399.7588552202496" y1="0" x2="1399.7588552202496" y2="376.9089994430542" fill="rgb(0, 0, 0)" stroke="rgb(189, 189, 189)" stroke-width="1px" opacity="0.25"></line><line x1="1633.051997756958" y1="0" x2="1633.051997756958" y2="376.9089994430542" fill="rgb(0, 0, 0)" stroke="rgb(189, 189, 189)" stroke-width="1px" opacity="0.25"></line></g><g><line x1="0" y1="376.9089994430542" x2="1633.051997756958" y2="376.9089994430542" fill="rgb(0, 0, 0)" stroke="rgb(189, 189, 189)" stroke-width="1px" opacity="0.25"></line><line x1="0" y1="339.2180994987488" x2="1633.051997756958" y2="339.2180994987488" fill="rgb(0, 0, 0)" stroke="rgb(189, 189, 189)" stroke-width="1px" opacity="0.25"></line><line x1="0" y1="301.5271995544433" x2="1633.051997756958" y2="301.5271995544433" fill="rgb(0, 0, 0)" stroke="rgb(189, 189, 189)" stroke-width="1px" opacity="0.25"></line><line x1="0" y1="263.8362996101379" x2="1633.051997756958" y2="263.8362996101379" fill="rgb(0, 0, 0)" stroke="rgb(189, 189, 189)" stroke-width="1px" opacity="0.25"></line><line x1="0" y1="226.14539966583246" x2="1633.051997756958" y2="226.14539966583246" fill="rgb(0, 0, 0)" stroke="rgb(189, 189, 189)" stroke-width="1px" opacity="0.25"></line><line x1="0" y1="188.45449972152707" x2="1633.051997756958" y2="188.45449972152707" fill="rgb(0, 0, 0)" stroke="rgb(189, 189, 189)" stroke-width="1px" opacity="0.25"></line><line x1="0" y1="150.76359977722169" x2="1633.051997756958" y2="150.76359977722169" fill="rgb(0, 0, 0)" stroke="rgb(189, 189, 189)" stroke-width="1px" opacity="0.25"></line><line x1="0" y1="113.07269983291623" x2="1633.051997756958" y2="113.07269983291623" fill="rgb(0, 0, 0)" stroke="rgb(189, 189, 189)" stroke-width="1px" opacity="0.25"></line><line x1="0" y1="75.38179988861079" x2="1633.051997756958" y2="75.38179988861079" fill="rgb(0, 0, 0)" stroke="rgb(189, 189, 189)" stroke-width="1px" opacity="0.25"></line><line x1="0" y1="37.69089994430533" x2="1633.051997756958" y2="37.69089994430533" fill="rgb(0, 0, 0)" stroke="rgb(189, 189, 189)" stroke-width="1px" opacity="0.25"></line><line x1="0" y1="0" x2="1633.051997756958" y2="0" fill="rgb(0, 0, 0)" stroke="rgb(189, 189, 189)" stroke-width="1px" opacity="0.25"></line></g></g></g><g><g><line x1="0" y1="489.98169927597047" x2="1633.051997756958" y2="489.98169927597047" fill="rgb(0, 0, 0)" stroke="rgb(153, 153, 153)" stroke-width="1.5px"></line></g></g><g><g><line x1="0" y1="0" x2="0" y2="376.9089994430542" fill="rgb(0, 0, 0)" stroke="rgb(153, 153, 153)" stroke-width="1.5px"></line></g></g><g><g><g><g><g><path style="fill: none;" stroke="rgb(0, 153, 136)" stroke-width="2px" d="M114.66824541964284,-86.34939163856845L152.89099389285715,45.953293688006156L191.11374236607142,56.25387167250493L229.3364908392857,130.15880475467625L267.5592393125,194.28120693369388L305.7819877857143,256.61288036137654L344.0047362589286,320.98553389789015L382.22748473214284,262.6522141239385L420.45023320535716,282.5262221875931L458.6729816785714,267.80035348892403L496.8957301517857,241.86413509622835L535.118478625,301.00040796021216L573.3412270982143,340.4270909305355L611.5639755714286,232.9533305212922L649.7867240446428,260.33600555043546L688.0094725178571,278.4667429317535L726.2322209910715,281.7072350319623L764.4549694642857,318.61457791679146L802.6777179375,329.05105249707316L840.9004664107143,337.27407459405987L879.1232148839285,343.7687883813895L917.3459633571428,334.15704054200376L955.5687118303572,297.06207040630693L993.7914603035714,309.2581292011106L1032.0142087767856,263.075061766283L1070.23695725,261.32885259506224L1108.4597057232143,325.4308624777864L1146.6824541964286,222.20742075272375L1184.9052026696427,227.17438478468523L1223.1279511428572,229.69021434260776L1261.3506996160713,252.45827252893977L1299.5734480892856,288.67018946082334L1337.7961965625,263.7107681487201L1376.0189450357143,261.51039044746585L1414.2416935089284,276.1264225175623" fill="none"></path></g><g><path style="fill: none;" stroke="rgb(238, 51, 119)" stroke-width="2px" d="M38.22274847321429,46.502367145231524L76.44549694642858,-27.233836469281638L114.66824541964284,42.75404840571894L152.89099389285715,5.72461966180132L191.11374236607142,95.13378458177937L229.3364908392857,179.04643779340344L267.5592393125,201.70330890956478L305.7819877857143,213.18514023412945L344.0047362589286,190.05992756923817L382.22748473214284,253.92807352596384L420.45023320535716,258.96577934956343L458.6729816785714,256.67262842320554L496.8957301517857,239.39392862727271L535.118478625,306.3314802560491L573.3412270982143,273.906978650283L611.5639755714286,311.756845832187L649.7867240446428,291.3208426658637L688.0094725178571,308.6475710606702L726.2322209910715,338.3785070955116L764.4549694642857,267.60452034994836L802.6777179375,240.77997363698617L840.9004664107143,167.98246135412109L879.1232148839285,233.05073628634057L917.3459633571428,251.89357439028717L955.5687118303572,212.54560300811622L993.7914603035714,150.2587844165183L1032.0142087767856,181.3585914771562L1070.23695725,281.33154661753406L1108.4597057232143,267.5825581120072L1146.6824541964286,197.62176298783731L1184.9052026696427,284.59098270738707L1223.1279511428572,341.86520910697914L1261.3506996160713,274.031167543789L1299.5734480892856,263.04445892771827L1337.7961965625,313.14446617892565L1376.0189450357143,296.85580559385625L1414.2416935089284,280.8503351322822" fill="none"></path></g><g><path style="fill: none;" stroke="rgb(51, 187, 238)" stroke-width="2px" d="M38.22274847321429,215.15397446462933L76.44549694642858,251.24145405526437L114.66824541964284,189.4833918517814L152.89099389285715,130.10022765521816L191.11374236607142,233.3740051420067L229.3364908392857,262.20811660307226L267.5592393125,189.84882019666242L305.7819877857143,152.11346083189383L344.0047362589286,164.77737381228326L382.22748473214284,247.245168331814L420.45023320535716,219.13297111390713L458.6729816785714,273.60647618928516L496.8957301517857,309.9379406976035L535.118478625,320.1829994677654L573.3412270982143,282.83060908316077L611.5639755714286,313.30448697816524L649.7867240446428,302.8022822769449L688.0094725178571,305.038586790068L726.2322209910715,326.7488841191247L764.4549694642857,340.8043364947491L802.6777179375,381.6057921359542L840.9004664107143,318.7964530847863L879.1232148839285,293.4055599939523L917.3459633571428,231.43162668377906L955.5687118303572,302.2878826819675L993.7914603035714,324.5947106839515L1032.0142087767856,278.3675694377054L1070.23695725,271.78972638001846L1108.4597057232143,208.71522255741866L1146.6824541964286,274.41063376280283L1184.9052026696427,299.33457851206964L1223.1279511428572,337.768850358124L1261.3506996160713,384.13538027678993L1299.5734480892856,359.8331225997404L1337.7961965625,331.64955151685473L1376.0189450357143,352.02383707497177L1414.2416935089284,331.6149975586263" fill="none"></path></g></g></g></g><g opacity="0.2"><g><g><g><path style="fill: none;" stroke="rgb(0, 153, 136)" stroke-width="2px" d="M114.66824541964284,-61.426658195180586L152.89099389285715,201.54125163205796L191.11374236607142,69.70230628906637L229.3364908392857,232.39593298322882L267.5592393125,285.9772680081241L305.7819877857143,347.4930586030028L344.0047362589286,415.92269412002474L382.22748473214284,176.03403265804005L420.45023320535716,312.1569784926646L458.6729816785714,245.79168796808435L496.8957301517857,203.04449376027455L535.118478625,389.58896314141936L573.3412270982143,399.52077080020985L611.5639755714286,71.81848872999771L649.7867240446428,301.39843066377784L688.0094725178571,305.6582456114735L726.2322209910715,286.56747952591957L764.4549694642857,373.9722187667055L802.6777179375,344.70519200642633L840.9004664107143,349.60833715749527L879.1232148839285,353.5107308355898L917.3459633571428,319.73953264324155L955.5687118303572,241.41987885793316L993.7914603035714,327.5521653826963L1032.0142087767856,193.80057878385347L1070.23695725,258.70954151907364L1108.4597057232143,421.5838182548618L1146.6824541964286,67.372315215157L1184.9052026696427,234.62482918552814L1223.1279511428572,233.46395817892562L1261.3506996160713,286.6103570903889L1299.5734480892856,342.9880622648633L1337.7961965625,226.27163725324058L1376.0189450357143,258.2098239523235L1414.2416935089284,298.05047039657296" fill="none"></path></g><g><path style="fill: none;" stroke="rgb(238, 51, 119)" stroke-width="2px" d="M38.22274847321429,46.502367145231524L76.44549694642858,-71.47555863798954L114.66824541964284,109.94241788571941L152.89099389285715,-37.82198854104586L191.11374236607142,211.86639030130274L229.3364908392857,295.1278457402358L267.5592393125,234.10299711561333L305.7819877857143,229.9257605309255L344.0047362589286,155.95473072983134L382.22748473214284,348.76482682249906L420.45023320535716,266.4766464639179L458.6729816785714,253.24538125974448L496.8957301517857,213.53229688613072L535.118478625,406.60667006721303L573.3412270982143,225.3083400261023L611.5639755714286,368.50495194621755L649.7867240446428,260.67548574802896L688.0094725178571,334.63326439841734L726.2322209910715,382.9703819389107L764.4549694642857,161.45000925432794L802.6777179375,200.54462468943575L840.9004664107143,58.788588362973975L879.1232148839285,330.65186402508795L917.3459633571428,280.157608334826L955.5687118303572,153.52392560339976L993.7914603035714,56.82882215395037L1032.0142087767856,228.00822249223066L1070.23695725,431.2908258460656L1108.4597057232143,246.95908801847835L1146.6824541964286,92.68060896785066L1184.9052026696427,415.0447834467723L1223.1279511428572,427.7765373107132L1261.3506996160713,172.28011329702622L1299.5734480892856,246.56439679056754L1337.7961965625,388.2944749026003L1376.0189450357143,272.42281513627245L1414.2416935089284,256.84212968755213" fill="none"></path></g><g><path style="fill: none;" stroke="rgb(51, 187, 238)" stroke-width="2px" d="M38.22274847321429,215.15397446462933L76.44549694642858,272.89394180964536L114.66824541964284,130.19565213643773L152.89099389285715,60.26562656005969L191.11374236607142,368.20824902875785L229.3364908392857,302.09607303385195L267.5592393125,86.37386858675369L305.7819877857143,97.09494461861141L344.0047362589286,183.45418561990041L382.22748473214284,369.70023206667275L420.45023320535716,177.21965084675546L458.6729816785714,355.02029139328204L496.8957301517857,364.31650892480695L535.118478625,335.5305164863423L573.3412270982143,226.84592983899608L611.5639755714286,358.9938112809599L649.7867240446428,287.05341940617427L688.0094725178571,308.3924757622791L726.2322209910715,359.3110227674258L764.4549694642857,361.88623033416496L802.6777179375,442.80573794896566L840.9004664107143,224.58451127609027L879.1232148839285,255.3197216565928L917.3459633571428,138.47146085884188L955.5687118303572,408.5717630633085L993.7914603035714,358.05485755849577L1032.0142087767856,209.02697585092096L1070.23695725,261.92297189202657L1108.4597057232143,114.10352492405141L1146.6824541964286,372.95371426202394L1184.9052026696427,336.7204873709187L1223.1279511428572,395.4202504800719L1261.3506996160713,453.6851696195563L1299.5734480892856,323.3797378248871L1337.7961965625,289.374196103765L1376.0189450357143,382.5852648867747L1414.2416935089284,301.00173859986637" fill="none"></path></g></g></g></g></g><g><g opacity="0.816593"><span fill="rgb(0, 0, 0)" stroke="none" stroke-width="1px">Alt + Scroll to Zoom</span></g></g></g><g transform="translate(72, 376)" clip-path="url(#clip_1)"><clipPath id="clip_1"><rect width="1633" height="23"></rect></clipPath><g><g><line x1="0" y1="0" x2="0" y2="5" style="visibility: inherit;" fill="rgb(0, 0, 0)" stroke="rgb(204, 204, 204)" stroke-width="1px"></line><line x1="233.29314253670827" y1="0" x2="233.29314253670827" y2="5" style="visibility: inherit;" fill="rgb(0, 0, 0)" stroke="rgb(204, 204, 204)" stroke-width="1px"></line><line x1="466.58628507341655" y1="0" x2="466.58628507341655" y2="5" style="visibility: inherit;" fill="rgb(0, 0, 0)" stroke="rgb(204, 204, 204)" stroke-width="1px"></line><line x1="699.8794276101248" y1="0" x2="699.8794276101248" y2="5" style="visibility: inherit;" fill="rgb(0, 0, 0)" stroke="rgb(204, 204, 204)" stroke-width="1px"></line><line x1="933.1725701468331" y1="0" x2="933.1725701468331" y2="5" style="visibility: inherit;" fill="rgb(0, 0, 0)" stroke="rgb(204, 204, 204)" stroke-width="1px"></line><line x1="1166.4657126835414" y1="0" x2="1166.4657126835414" y2="5" style="visibility: inherit;" fill="rgb(0, 0, 0)" stroke="rgb(204, 204, 204)" stroke-width="1px"></line><line x1="1399.7588552202496" y1="0" x2="1399.7588552202496" y2="5" style="visibility: inherit;" fill="rgb(0, 0, 0)" stroke="rgb(204, 204, 204)" stroke-width="1px"></line><line x1="1633.051997756958" y1="0" x2="1633.051997756958" y2="5" style="visibility: inherit;" fill="rgb(0, 0, 0)" stroke="rgb(204, 204, 204)" stroke-width="1px"></line></g><g transform="translate(0, 8)"><text style="text-anchor: middle; visibility: hidden; font-family: Roboto, sans-serif; font-size: 12px; font-weight: 200;" x="0" y="0" dx="0em" dy="0.95em" fill="rgb(255, 255, 255)" stroke="none" stroke-width="1px">0</text><text style="text-anchor: middle; visibility: inherit; font-family: Roboto, sans-serif; font-size: 12px; font-weight: 200;" x="233.29314253670827" y="0" dx="0em" dy="0.95em" fill="rgb(255, 255, 255)" stroke="none" stroke-width="1px">50k</text><text style="text-anchor: middle; visibility: inherit; font-family: Roboto, sans-serif; font-size: 12px; font-weight: 200;" x="466.58628507341655" y="0" dx="0em" dy="0.95em" fill="rgb(255, 255, 255)" stroke="none" stroke-width="1px">100k</text><text style="text-anchor: middle; visibility: inherit; font-family: Roboto, sans-serif; font-size: 12px; font-weight: 200;" x="699.8794276101248" y="0" dx="0em" dy="0.95em" fill="rgb(255, 255, 255)" stroke="none" stroke-width="1px">150k</text><text style="text-anchor: middle; visibility: inherit; font-family: Roboto, sans-serif; font-size: 12px; font-weight: 200;" x="933.1725701468331" y="0" dx="0em" dy="0.95em" fill="rgb(255, 255, 255)" stroke="none" stroke-width="1px">200k</text><text style="text-anchor: middle; visibility: inherit; font-family: Roboto, sans-serif; font-size: 12px; font-weight: 200;" x="1166.4657126835414" y="0" dx="0em" dy="0.95em" fill="rgb(255, 255, 255)" stroke="none" stroke-width="1px">250k</text><text style="text-anchor: middle; visibility: inherit; font-family: Roboto, sans-serif; font-size: 12px; font-weight: 200;" x="1399.7588552202496" y="0" dx="0em" dy="0.95em" fill="rgb(255, 255, 255)" stroke="none" stroke-width="1px">300k</text><text style="text-anchor: middle; visibility: hidden; font-family: Roboto, sans-serif; font-size: 12px; font-weight: 200;" x="1633.051997756958" y="0" dx="0em" dy="0.95em" fill="rgb(255, 255, 255)" stroke="none" stroke-width="1px">350k</text></g><line x1="0" y1="0" x2="1633.051997756958" y2="0" fill="rgb(0, 0, 0)" stroke="rgb(204, 204, 204)" stroke-width="1px"></line></g></g></g></g></svg>