<svg viewBox="0 0 1705.3499755859375 400" xmlns="http://www.w3.org/2000/svg"><g><g><g><g><g><line x1="61.91500186920166" y1="376.9089994430542" x2="56.91500186920166" y2="376.9089994430542" style="visibility: inherit;" fill="rgb(0, 0, 0)" stroke="rgb(204, 204, 204)" stroke-width="1px"></line><line x1="61.91500186920166" y1="349.98692805426464" x2="56.91500186920166" y2="349.98692805426464" style="visibility: inherit;" fill="rgb(0, 0, 0)" stroke="rgb(204, 204, 204)" stroke-width="1px"></line><line x1="61.91500186920166" y1="323.0648566654751" x2="56.91500186920166" y2="323.0648566654751" style="visibility: inherit;" fill="rgb(0, 0, 0)" stroke="rgb(204, 204, 204)" stroke-width="1px"></line><line x1="61.91500186920166" y1="296.14278527668546" x2="56.91500186920166" y2="296.14278527668546" style="visibility: inherit;" fill="rgb(0, 0, 0)" stroke="rgb(204, 204, 204)" stroke-width="1px"></line><line x1="61.91500186920166" y1="269.22071388789584" x2="56.91500186920166" y2="269.22071388789584" style="visibility: inherit;" fill="rgb(0, 0, 0)" stroke="rgb(204, 204, 204)" stroke-width="1px"></line><line x1="61.91500186920166" y1="242.29864249910625" x2="56.91500186920166" y2="242.29864249910625" style="visibility: inherit;" fill="rgb(0, 0, 0)" stroke="rgb(204, 204, 204)" stroke-width="1px"></line><line x1="61.91500186920166" y1="215.37657111031666" x2="56.91500186920166" y2="215.37657111031666" style="visibility: inherit;" fill="rgb(0, 0, 0)" stroke="rgb(204, 204, 204)" stroke-width="1px"></line><line x1="61.91500186920166" y1="188.45449972152707" x2="56.91500186920166" y2="188.45449972152707" style="visibility: inherit;" fill="rgb(0, 0, 0)" stroke="rgb(204, 204, 204)" stroke-width="1px"></line><line x1="61.91500186920166" y1="161.53242833273748" x2="56.91500186920166" y2="161.53242833273748" style="visibility: inherit;" fill="rgb(0, 0, 0)" stroke="rgb(204, 204, 204)" stroke-width="1px"></line><line x1="61.91500186920166" y1="134.61035694394786" x2="56.91500186920166" y2="134.61035694394786" style="visibility: inherit;" fill="rgb(0, 0, 0)" stroke="rgb(204, 204, 204)" stroke-width="1px"></line><line x1="61.91500186920166" y1="107.68828555515829" x2="56.91500186920166" y2="107.68828555515829" style="visibility: inherit;" fill="rgb(0, 0, 0)" stroke="rgb(204, 204, 204)" stroke-width="1px"></line><line x1="61.91500186920166" y1="80.76621416636873" x2="56.91500186920166" y2="80.76621416636873" style="visibility: inherit;" fill="rgb(0, 0, 0)" stroke="rgb(204, 204, 204)" stroke-width="1px"></line><line x1="61.91500186920166" y1="53.84414277757911" x2="56.91500186920166" y2="53.84414277757911" style="visibility: inherit;" fill="rgb(0, 0, 0)" stroke="rgb(204, 204, 204)" stroke-width="1px"></line><line x1="61.91500186920166" y1="26.922071388789533" x2="56.91500186920166" y2="26.922071388789533" style="visibility: inherit;" fill="rgb(0, 0, 0)" stroke="rgb(204, 204, 204)" stroke-width="1px"></line><line x1="61.91500186920166" y1="0" x2="56.91500186920166" y2="0" style="visibility: inherit;" fill="rgb(0, 0, 0)" stroke="rgb(204, 204, 204)" stroke-width="1px"></line></g><g transform="translate(51.91500186920166, 0)"><text style="text-anchor: end; visibility: hidden; font-family: Roboto, sans-serif; font-size: 12px; font-weight: 200;" x="0" y="376.9089994430542" dx="0em" dy="0.3em" fill="rgb(255, 255, 255)" stroke="none" stroke-width="1px">5e-3</text><text style="text-anchor: end; visibility: inherit; font-family: Roboto, sans-serif; font-size: 12px; font-weight: 200;" x="0" y="349.98692805426464" dx="0em" dy="0.3em" fill="rgb(255, 255, 255)" stroke="none" stroke-width="1px">0.01</text><text style="text-anchor: end; visibility: inherit; font-family: Roboto, sans-serif; font-size: 12px; font-weight: 200;" x="0" y="323.0648566654751" dx="0em" dy="0.3em" fill="rgb(255, 255, 255)" stroke="none" stroke-width="1px">0.015</text><text style="text-anchor: end; visibility: inherit; font-family: Roboto, sans-serif; font-size: 12px; font-weight: 200;" x="0" y="296.14278527668546" dx="0em" dy="0.3em" fill="rgb(255, 255, 255)" stroke="none" stroke-width="1px">0.02</text><text style="text-anchor: end; visibility: inherit; font-family: Roboto, sans-serif; font-size: 12px; font-weight: 200;" x="0" y="269.22071388789584" dx="0em" dy="0.3em" fill="rgb(255, 255, 255)" stroke="none" stroke-width="1px">0.025</text><text style="text-anchor: end; visibility: inherit; font-family: Roboto, sans-serif; font-size: 12px; font-weight: 200;" x="0" y="242.29864249910625" dx="0em" dy="0.3em" fill="rgb(255, 255, 255)" stroke="none" stroke-width="1px">0.03</text><text style="text-anchor: end; visibility: inherit; font-family: Roboto, sans-serif; font-size: 12px; font-weight: 200;" x="0" y="215.37657111031666" dx="0em" dy="0.3em" fill="rgb(255, 255, 255)" stroke="none" stroke-width="1px">0.035</text><text style="text-anchor: end; visibility: inherit; font-family: Roboto, sans-serif; font-size: 12px; font-weight: 200;" x="0" y="188.45449972152707" dx="0em" dy="0.3em" fill="rgb(255, 255, 255)" stroke="none" stroke-width="1px">0.04</text><text style="text-anchor: end; visibility: inherit; font-family: Roboto, sans-serif; font-size: 12px; font-weight: 200;" x="0" y="161.53242833273748" dx="0em" dy="0.3em" fill="rgb(255, 255, 255)" stroke="none" stroke-width="1px">0.045</text><text style="text-anchor: end; visibility: inherit; font-family: Roboto, sans-serif; font-size: 12px; font-weight: 200;" x="0" y="134.61035694394786" dx="0em" dy="0.3em" fill="rgb(255, 255, 255)" stroke="none" stroke-width="1px">0.05</text><text style="text-anchor: end; visibility: inherit; font-family: Roboto, sans-serif; font-size: 12px; font-weight: 200;" x="0" y="107.68828555515829" dx="0em" dy="0.3em" fill="rgb(255, 255, 255)" stroke="none" stroke-width="1px">0.055</text><text style="text-anchor: end; visibility: inherit; font-family: Roboto, sans-serif; font-size: 12px; font-weight: 200;" x="0" y="80.76621416636873" dx="0em" dy="0.3em" fill="rgb(255, 255, 255)" stroke="none" stroke-width="1px">0.06</text><text style="text-anchor: end; visibility: inherit; font-family: Roboto, sans-serif; font-size: 12px; font-weight: 200;" x="0" y="53.84414277757911" dx="0em" dy="0.3em" fill="rgb(255, 255, 255)" stroke="none" stroke-width="1px">0.065</text><text style="text-anchor: end; visibility: inherit; font-family: Roboto, sans-serif; font-size: 12px; font-weight: 200;" x="0" y="26.922071388789533" dx="0em" dy="0.3em" fill="rgb(255, 255, 255)" stroke="none" stroke-width="1px">0.07</text><text style="text-anchor: end; visibility: hidden; font-family: Roboto, sans-serif; font-size: 12px; font-weight: 200;" x="0" y="0" dx="0em" dy="0.3em" fill="rgb(255, 255, 255)" stroke="none" stroke-width="1px">0.075</text></g><line x1="61.91500186920166" y1="0" x2="61.91500186920166" y2="376.9089994430542" fill="rgb(0, 0, 0)" stroke="rgb(204, 204, 204)" stroke-width="1px"></line></g></g><g transform="translate(61, 0)" clip-path="url(#clip_0)"><clipPath id="clip_0"><rect width="1643" height="376"></rect></clipPath><g><g><g><line x1="0" y1="0" x2="0" y2="376.9089994430542" fill="rgb(0, 0, 0)" stroke="rgb(189, 189, 189)" stroke-width="1px" opacity="0.25"></line><line x1="234.77642830439973" y1="0" x2="234.77642830439973" y2="376.9089994430542" fill="rgb(0, 0, 0)" stroke="rgb(189, 189, 189)" stroke-width="1px" opacity="0.25"></line><line x1="469.55285660879946" y1="0" x2="469.55285660879946" y2="376.9089994430542" fill="rgb(0, 0, 0)" stroke="rgb(189, 189, 189)" stroke-width="1px" opacity="0.25"></line><line x1="704.3292849131992" y1="0" x2="704.3292849131992" y2="376.9089994430542" fill="rgb(0, 0, 0)" stroke="rgb(189, 189, 189)" stroke-width="1px" opacity="0.25"></line><line x1="939.1057132175989" y1="0" x2="939.1057132175989" y2="376.9089994430542" fill="rgb(0, 0, 0)" stroke="rgb(189, 189, 189)" stroke-width="1px" opacity="0.25"></line><line x1="1173.8821415219988" y1="0" x2="1173.8821415219988" y2="376.9089994430542" fill="rgb(0, 0, 0)" stroke="rgb(189, 189, 189)" stroke-width="1px" opacity="0.25"></line><line x1="1408.6585698263984" y1="0" x2="1408.6585698263984" y2="376.9089994430542" fill="rgb(0, 0, 0)" stroke="rgb(189, 189, 189)" stroke-width="1px" opacity="0.25"></line><line x1="1643.4349981307982" y1="0" x2="1643.4349981307982" y2="376.9089994430542" fill="rgb(0, 0, 0)" stroke="rgb(189, 189, 189)" stroke-width="1px" opacity="0.25"></line></g><g><line x1="0" y1="376.9089994430542" x2="1643.4349981307982" y2="376.9089994430542" fill="rgb(0, 0, 0)" stroke="rgb(189, 189, 189)" stroke-width="1px" opacity="0.25"></line><line x1="0" y1="349.98692805426464" x2="1643.4349981307982" y2="349.98692805426464" fill="rgb(0, 0, 0)" stroke="rgb(189, 189, 189)" stroke-width="1px" opacity="0.25"></line><line x1="0" y1="323.0648566654751" x2="1643.4349981307982" y2="323.0648566654751" fill="rgb(0, 0, 0)" stroke="rgb(189, 189, 189)" stroke-width="1px" opacity="0.25"></line><line x1="0" y1="296.14278527668546" x2="1643.4349981307982" y2="296.14278527668546" fill="rgb(0, 0, 0)" stroke="rgb(189, 189, 189)" stroke-width="1px" opacity="0.25"></line><line x1="0" y1="269.22071388789584" x2="1643.4349981307982" y2="269.22071388789584" fill="rgb(0, 0, 0)" stroke="rgb(189, 189, 189)" stroke-width="1px" opacity="0.25"></line><line x1="0" y1="242.29864249910625" x2="1643.4349981307982" y2="242.29864249910625" fill="rgb(0, 0, 0)" stroke="rgb(189, 189, 189)" stroke-width="1px" opacity="0.25"></line><line x1="0" y1="215.37657111031666" x2="1643.4349981307982" y2="215.37657111031666" fill="rgb(0, 0, 0)" stroke="rgb(189, 189, 189)" stroke-width="1px" opacity="0.25"></line><line x1="0" y1="188.45449972152707" x2="1643.4349981307982" y2="188.45449972152707" fill="rgb(0, 0, 0)" stroke="rgb(189, 189, 189)" stroke-width="1px" opacity="0.25"></line><line x1="0" y1="161.53242833273748" x2="1643.4349981307982" y2="161.53242833273748" fill="rgb(0, 0, 0)" stroke="rgb(189, 189, 189)" stroke-width="1px" opacity="0.25"></line><line x1="0" y1="134.61035694394786" x2="1643.4349981307982" y2="134.61035694394786" fill="rgb(0, 0, 0)" stroke="rgb(189, 189, 189)" stroke-width="1px" opacity="0.25"></line><line x1="0" y1="107.68828555515829" x2="1643.4349981307982" y2="107.68828555515829" fill="rgb(0, 0, 0)" stroke="rgb(189, 189, 189)" stroke-width="1px" opacity="0.25"></line><line x1="0" y1="80.76621416636873" x2="1643.4349981307982" y2="80.76621416636873" fill="rgb(0, 0, 0)" stroke="rgb(189, 189, 189)" stroke-width="1px" opacity="0.25"></line><line x1="0" y1="53.84414277757911" x2="1643.4349981307982" y2="53.84414277757911" fill="rgb(0, 0, 0)" stroke="rgb(189, 189, 189)" stroke-width="1px" opacity="0.25"></line><line x1="0" y1="26.922071388789533" x2="1643.4349981307982" y2="26.922071388789533" fill="rgb(0, 0, 0)" stroke="rgb(189, 189, 189)" stroke-width="1px" opacity="0.25"></line><line x1="0" y1="0" x2="1643.4349981307982" y2="0" fill="rgb(0, 0, 0)" stroke="rgb(189, 189, 189)" stroke-width="1px" opacity="0.25"></line></g></g></g><g><g><line x1="0" y1="403.83107083184376" x2="1643.4349981307982" y2="403.83107083184376" fill="rgb(0, 0, 0)" stroke="rgb(153, 153, 153)" stroke-width="1.5px"></line></g></g><g><g><line x1="0" y1="0" x2="0" y2="376.9089994430542" fill="rgb(0, 0, 0)" stroke="rgb(153, 153, 153)" stroke-width="1.5px"></line></g></g><g><g><g><g><g><path style="fill: none;" stroke="rgb(0, 153, 136)" stroke-width="2px" d="M76.93154002678571,-25.155228294258627L115.39731004017855,50.648568664979834L153.86308005357142,99.19429557519918L192.32885006696426,147.36772524052185L230.7946200803571,167.51757025984742L269.26039009375,220.77804539007673L307.72616010714285,280.4427042153935L346.1919301205357,315.29481663848395L384.65770013392853,323.05199181007384L423.1234701473214,321.97001967314145L461.5892401607142,325.3414912282127L500.0550101741071,297.87514666783534L538.5207801875,301.74410818879306L576.9865502008928,324.97478878499925L615.4523202142857,283.97520348668723L653.9180902276785,274.8972224933642L692.3838602410714,297.3227984978767L730.8496302544643,302.8231484137003L769.3154002678571,322.65426815908495L807.78117028125,338.59481900735403L846.2469402946429,350.2622402250736L884.7127103080356,348.98083738520006L923.1784803214284,340.98191943030884L961.6442503348214,300.3280233458367L1000.1100203482142,318.95462143750484L1038.575790361607,296.7408474007682L1077.041560375,267.7693921454409L1115.5073303883928,307.6025259327392L1153.9731004017856,241.65259279697835L1192.4388704151784,281.0873641746794L1230.9046404285714,252.36323194326894L1269.3704104419642,263.68744688247534L1307.836180455357,294.9655494248478L1346.30195046875,316.98593224356375L1384.7677204821427,276.0385253322319L1423.2334904955355,275.3292415500001" fill="none"></path></g><g><path style="fill: none;" stroke="rgb(238, 51, 119)" stroke-width="2px" d="M38.465770013392856,-51.1690248441716L76.93154002678571,22.928702004475237L115.39731004017855,71.51711765409286L153.86308005357142,79.2850812258127L192.32885006696426,118.77514364977856L230.7946200803571,191.3231499417383L269.26039009375,232.25138001325297L307.72616010714285,231.96290359553447L346.1919301205357,239.5281822246047L384.65770013392853,281.9424150778351L423.1234701473214,275.6280089680561L461.5892401607142,285.0941498936748L500.0550101741071,310.8996127316662L538.5207801875,334.3205936805339L576.9865502008928,345.7968437336551L615.4523202142857,361.91648906007805L653.9180902276785,350.74615282960855L692.3838602410714,346.510200903688L730.8496302544643,363.5898231500807L769.3154002678571,317.67054579407596L807.78117028125,306.02650945842953L846.2469402946429,273.4061055292779L884.7127103080356,289.0316064261528L923.1784803214284,285.42554309114274L961.6442503348214,253.52004117720853L1000.1100203482142,265.00596475181214L1038.575790361607,283.8599624305522L1077.041560375,284.62304421659354L1115.5073303883928,289.74756235573557L1153.9731004017856,260.3527744569783L1192.4388704151784,305.0586502600597L1230.9046404285714,338.2906245085218L1269.3704104419642,302.19692905704846L1307.836180455357,291.97733534007347L1346.30195046875,312.2681205188228L1384.7677204821427,311.62568716708336L1423.2334904955355,292.0805985997351" fill="none"></path></g><g><path style="fill: none;" stroke="rgb(51, 187, 238)" stroke-width="2px" d="M38.465770013392856,-62.09625718886464L76.93154002678571,64.7890394452354L115.39731004017855,80.70223024949387L153.86308005357142,75.45166941448751L192.32885006696426,152.13230026995848L230.7946200803571,200.61857354907454L269.26039009375,181.2583013108637L307.72616010714285,186.17275221971397L346.1919301205357,223.06323921041815L384.65770013392853,256.7619201622459L423.1234701473214,259.6658316733983L461.5892401607142,292.7560650654921L500.0550101741071,325.2989907181623L538.5207801875,325.95176445579847L576.9865502008928,312.7310643192393L615.4523202142857,310.0623245993101L653.9180902276785,334.0997105817231L692.3838602410714,321.6341726844389L730.8496302544643,322.0763323478471L769.3154002678571,340.220202602724L807.78117028125,361.7542233407055L846.2469402946429,336.7160793759147L884.7127103080356,335.1019633299086L923.1784803214284,292.39620611507803L961.6442503348214,312.42090799578943L1000.1100203482142,340.5061460161473L1038.575790361607,290.5449691634568L1077.041560375,260.79834291612497L1115.5073303883928,226.1569419097889L1153.9731004017856,278.52707060776817L1192.4388704151784,268.40922006863894L1230.9046404285714,302.4981466580484L1269.3704104419642,324.6604215041042L1307.836180455357,336.80755071782306L1346.30195046875,298.9737520318049L1384.7677204821427,329.61151317136694L1423.2334904955355,315.0645850599473" fill="none"></path></g></g></g></g><g opacity="0.2"><g><g><g><path style="fill: none;" stroke="rgb(0, 153, 136)" stroke-width="2px" d="M38.465770013392856,-142.69486568618703L76.93154002678571,45.36855414089842L115.39731004017855,123.4202137458487L153.86308005357142,156.28407042161726L192.32885006696426,210.2629550115671L230.7946200803571,195.39205986578182L269.26039009375,296.9413769939066L307.72616010714285,367.43434956343015L346.1919301205357,366.69491278822534L384.65770013392853,334.5704928876616L423.1234701473214,320.3568748753917L461.5892401607142,330.38035116150115L500.0550101741071,256.76531220777963L538.5207801875,307.5399707718419L576.9865502008928,359.79350288631395L615.4523202142857,222.50474162329087L653.9180902276785,261.28409250069774L692.3838602410714,330.9554686533271L730.8496302544643,311.0728353644871L769.3154002678571,352.399135134266L807.78117028125,362.50477106206483L846.2469402946429,367.7629881301878L884.7127103080356,347.05875842445363L923.1784803214284,328.98363725278097L961.6442503348214,239.34746816962223L1000.1100203482142,346.89443914107477L1038.575790361607,263.42024318462273L1077.041560375,224.31225374045817L1115.5073303883928,367.3521899217407L1153.9731004017856,142.7277295428627L1192.4388704151784,340.23950816423167L1230.9046404285714,209.27703931129403L1269.3704104419642,280.6737679394012L1307.836180455357,341.8827009980201L1346.30195046875,350.0165055252728L1384.7677204821427,214.6174160211064L1423.2334904955355,274.26531588762634" fill="none"></path></g><g><path style="fill: none;" stroke="rgb(238, 51, 119)" stroke-width="2px" d="M38.465770013392856,-51.1690248441716L76.93154002678571,67.38733811366333L115.39731004017855,118.16199667772571L153.86308005357142,88.42020638615523L192.32885006696426,170.33336915050828L230.7946200803571,291.6831599257836L269.26039009375,290.7794038672L307.72616010714285,231.54230220912723L346.1919301205357,250.6854987227624L384.65770013392853,344.92260774052863L423.1234701473214,266.21367100206305L461.5892401607142,299.2418469612104L500.0550101741071,349.52354767513623L538.5207801875,369.4061809639762L576.9865502008928,362.99772891220135L615.4523202142857,386.08458822692876L653.9180902276785,333.99537539583565L692.3838602410714,340.15734852254224L730.8496302544643,389.20665461112674L769.3154002678571,248.7958269639057L807.78117028125,288.5610935415856L846.2469402946429,224.47657302383695L884.7127103080356,312.46954927320724L923.1784803214284,280.01649080588584L961.6442503348214,205.6620150769595L1000.1100203482142,282.23480113150015L1038.575790361607,312.1409107064495L1077.041560375,285.76766572414533L1115.5073303883928,297.4343348440431L1153.9731004017856,216.26060885489488L1192.4388704151784,372.11744913972717L1230.9046404285714,388.1385792691643L1269.3704104419642,248.05639018870087L1307.836180455357,276.64794549661957L1346.30195046875,342.7042974149143L1384.7677204821427,310.66203715603996L1423.2334904955355,262.76296605110736" fill="none"></path></g><g><path style="fill: none;" stroke="rgb(51, 187, 238)" stroke-width="2px" d="M38.465770013392856,-62.09625718886464L76.93154002678571,140.92021742569545L115.39731004017855,95.97889342158196L153.86308005357142,69.27700987252001L192.32885006696426,252.2465319148614L230.7946200803571,267.69254455247267L269.26039009375,153.57280224586634L307.72616010714285,193.33806882354628L346.1919301205357,277.4695419135138L384.65770013392853,306.8005339966372L423.1234701473214,263.9953606764487L461.5892401607142,342.2113395647778L500.0550101741071,374.0071208985838L538.5207801875,326.92964621054546L576.9865502008928,292.91555455112496L615.4523202142857,306.06109722143236L653.9180902276785,370.14561773918103L692.3838602410714,302.9390308372343L730.8496302544643,322.7395044843849L769.3154002678571,367.43434956343015L807.78117028125,394.0540734708026L846.2469402946429,299.15968731952097L884.7127103080356,332.68082112880495L923.1784803214284,228.33807618323982L961.6442503348214,342.45781848984603L1000.1100203482142,382.63388327597306L1038.575790361607,215.60333172137948L1077.041560375,216.17844921320543L1115.5073303883928,174.1948723099111L1153.9731004017856,357.08223471056306L1192.4388704151784,253.23244761513442L1230.9046404285714,353.63152975960736L1269.3704104419642,357.90383112745724L1307.836180455357,355.0282436683275L1346.30195046875,242.22305562875198L1384.7677204821427,375.56815409068287L1423.2334904955355,293.2441931178827" fill="none"></path></g></g></g></g></g></g><g transform="translate(61, 376)" clip-path="url(#clip_1)"><clipPath id="clip_1"><rect width="1643" height="23"></rect></clipPath><g><g><line x1="0" y1="0" x2="0" y2="5" style="visibility: inherit;" fill="rgb(0, 0, 0)" stroke="rgb(204, 204, 204)" stroke-width="1px"></line><line x1="234.77642830439973" y1="0" x2="234.77642830439973" y2="5" style="visibility: inherit;" fill="rgb(0, 0, 0)" stroke="rgb(204, 204, 204)" stroke-width="1px"></line><line x1="469.55285660879946" y1="0" x2="469.55285660879946" y2="5" style="visibility: inherit;" fill="rgb(0, 0, 0)" stroke="rgb(204, 204, 204)" stroke-width="1px"></line><line x1="704.3292849131992" y1="0" x2="704.3292849131992" y2="5" style="visibility: inherit;" fill="rgb(0, 0, 0)" stroke="rgb(204, 204, 204)" stroke-width="1px"></line><line x1="939.1057132175989" y1="0" x2="939.1057132175989" y2="5" style="visibility: inherit;" fill="rgb(0, 0, 0)" stroke="rgb(204, 204, 204)" stroke-width="1px"></line><line x1="1173.8821415219988" y1="0" x2="1173.8821415219988" y2="5" style="visibility: inherit;" fill="rgb(0, 0, 0)" stroke="rgb(204, 204, 204)" stroke-width="1px"></line><line x1="1408.6585698263984" y1="0" x2="1408.6585698263984" y2="5" style="visibility: inherit;" fill="rgb(0, 0, 0)" stroke="rgb(204, 204, 204)" stroke-width="1px"></line><line x1="1643.4349981307982" y1="0" x2="1643.4349981307982" y2="5" style="visibility: inherit;" fill="rgb(0, 0, 0)" stroke="rgb(204, 204, 204)" stroke-width="1px"></line></g><g transform="translate(0, 8)"><text style="text-anchor: middle; visibility: hidden; font-family: Roboto, sans-serif; font-size: 12px; font-weight: 200;" x="0" y="0" dx="0em" dy="0.95em" fill="rgb(255, 255, 255)" stroke="none" stroke-width="1px">0</text><text style="text-anchor: middle; visibility: inherit; font-family: Roboto, sans-serif; font-size: 12px; font-weight: 200;" x="234.77642830439973" y="0" dx="0em" dy="0.95em" fill="rgb(255, 255, 255)" stroke="none" stroke-width="1px">50k</text><text style="text-anchor: middle; visibility: inherit; font-family: Roboto, sans-serif; font-size: 12px; font-weight: 200;" x="469.55285660879946" y="0" dx="0em" dy="0.95em" fill="rgb(255, 255, 255)" stroke="none" stroke-width="1px">100k</text><text style="text-anchor: middle; visibility: inherit; font-family: Roboto, sans-serif; font-size: 12px; font-weight: 200;" x="704.3292849131992" y="0" dx="0em" dy="0.95em" fill="rgb(255, 255, 255)" stroke="none" stroke-width="1px">150k</text><text style="text-anchor: middle; visibility: inherit; font-family: Roboto, sans-serif; font-size: 12px; font-weight: 200;" x="939.1057132175989" y="0" dx="0em" dy="0.95em" fill="rgb(255, 255, 255)" stroke="none" stroke-width="1px">200k</text><text style="text-anchor: middle; visibility: inherit; font-family: Roboto, sans-serif; font-size: 12px; font-weight: 200;" x="1173.8821415219988" y="0" dx="0em" dy="0.95em" fill="rgb(255, 255, 255)" stroke="none" stroke-width="1px">250k</text><text style="text-anchor: middle; visibility: inherit; font-family: Roboto, sans-serif; font-size: 12px; font-weight: 200;" x="1408.6585698263984" y="0" dx="0em" dy="0.95em" fill="rgb(255, 255, 255)" stroke="none" stroke-width="1px">300k</text><text style="text-anchor: middle; visibility: hidden; font-family: Roboto, sans-serif; font-size: 12px; font-weight: 200;" x="1643.4349981307982" y="0" dx="0em" dy="0.95em" fill="rgb(255, 255, 255)" stroke="none" stroke-width="1px">350k</text></g><line x1="0" y1="0" x2="1643.4349981307982" y2="0" fill="rgb(0, 0, 0)" stroke="rgb(204, 204, 204)" stroke-width="1px"></line></g></g></g></g></svg>